<?xml version="1.0" encoding="utf-8" standalone="no"?>
<!DOCTYPE svg PUBLIC "-//W3C//DTD SVG 1.1//EN"
  "http://www.w3.org/Graphics/SVG/1.1/DTD/svg11.dtd">
<!-- Created with matplotlib (https://matplotlib.org/) -->
<svg height="589.79625pt" version="1.1" viewBox="0 0 826.882812 589.79625" width="826.882812pt" xmlns="http://www.w3.org/2000/svg" xmlns:xlink="http://www.w3.org/1999/xlink">
 <defs>
  <style type="text/css">
*{stroke-linecap:butt;stroke-linejoin:round;}
  </style>
 </defs>
 <g id="figure_1">
  <g id="patch_1">
   <path d="M 0 589.79625 
L 826.882812 589.79625 
L 826.882812 0 
L 0 0 
z
" style="fill:#ffffff;"/>
  </g>
  <g id="axes_1">
   <g id="patch_2">
    <path clip-path="url(#p7cc480ceaf)" d="M 442.13766 299.659411 
Q 371.281801 226.654334 301.983287 155.253838 
" style="fill:none;stroke:#000000;stroke-linecap:round;stroke-width:2;"/>
    <path clip-path="url(#p7cc480ceaf)" d="M 303.333966 159.517131 
L 301.983287 155.253838 
L 306.204329 156.73127 
" style="fill:none;stroke:#000000;stroke-linecap:round;stroke-width:2;"/>
   </g>
   <g id="patch_3">
    <path clip-path="url(#p7cc480ceaf)" d="M 442.13766 299.659411 
Q 441.771109 401.436314 441.412611 500.977165 
" style="fill:none;stroke:#000000;stroke-linecap:round;stroke-width:2;"/>
    <path clip-path="url(#p7cc480ceaf)" d="M 443.427004 496.984394 
L 441.412611 500.977165 
L 439.42703 496.969988 
" style="fill:none;stroke:#000000;stroke-linecap:round;stroke-width:2;"/>
   </g>
   <g id="patch_4">
    <path clip-path="url(#p7cc480ceaf)" d="M 442.13766 299.659411 
Q 540.444352 367.9373 636.914487 434.939627 
" style="fill:none;stroke:#000000;stroke-linecap:round;stroke-width:2;"/>
    <path clip-path="url(#p7cc480ceaf)" d="M 634.77005 431.015166 
L 636.914487 434.939627 
L 632.488256 434.3005 
" style="fill:none;stroke:#000000;stroke-linecap:round;stroke-width:2;"/>
   </g>
   <g id="patch_5">
    <path clip-path="url(#p7cc480ceaf)" d="M 442.13766 299.659411 
Q 486.27045 195.899053 529.528041 94.19637 
" style="fill:none;stroke:#000000;stroke-linecap:round;stroke-width:2;"/>
    <path clip-path="url(#p7cc480ceaf)" d="M 526.121997 97.094449 
L 529.528041 94.19637 
L 529.802878 98.660053 
" style="fill:none;stroke:#000000;stroke-linecap:round;stroke-width:2;"/>
   </g>
   <g id="patch_6">
    <path clip-path="url(#p7cc480ceaf)" d="M 442.13766 299.659411 
Q 548.48271 217.774233 653.056055 137.253261 
" style="fill:none;stroke:#000000;stroke-linecap:round;stroke-width:2;"/>
    <path clip-path="url(#p7cc480ceaf)" d="M 648.666548 138.108964 
L 653.056055 137.253261 
L 651.106913 141.278288 
" style="fill:none;stroke:#000000;stroke-linecap:round;stroke-width:2;"/>
   </g>
   <g id="patch_7">
    <path clip-path="url(#p7cc480ceaf)" d="M 442.13766 299.659411 
Q 297.350322 331.14725 154.747978 362.159904 
" style="fill:none;stroke:#000000;stroke-linecap:round;stroke-width:2;"/>
    <path clip-path="url(#p7cc480ceaf)" d="M 159.081632 363.264186 
L 154.747978 362.159904 
L 158.231596 359.35555 
" style="fill:none;stroke:#000000;stroke-linecap:round;stroke-width:2;"/>
   </g>
   <g id="patch_8">
    <path clip-path="url(#p7cc480ceaf)" d="M 442.13766 299.659411 
Q 367.571976 396.281379 294.37242 491.133122 
" style="fill:none;stroke:#000000;stroke-linecap:round;stroke-width:2;"/>
    <path clip-path="url(#p7cc480ceaf)" d="M 298.399561 489.188351 
L 294.37242 491.133122 
L 295.232887 486.744547 
" style="fill:none;stroke:#000000;stroke-linecap:round;stroke-width:2;"/>
   </g>
   <g id="patch_9">
    <path clip-path="url(#p7cc480ceaf)" d="M 442.13766 299.659411 
Q 300.585718 239.817869 161.093361 180.847024 
" style="fill:none;stroke:#000000;stroke-linecap:round;stroke-width:2;"/>
    <path clip-path="url(#p7cc480ceaf)" d="M 163.998883 184.246721 
L 161.093361 180.847024 
L 165.556432 180.562424 
" style="fill:none;stroke:#000000;stroke-linecap:round;stroke-width:2;"/>
   </g>
   <g id="patch_10">
    <path clip-path="url(#p7cc480ceaf)" d="M 442.13766 299.659411 
Q 339.48317 362.419969 238.736452 424.01416 
" style="fill:none;stroke:#000000;stroke-linecap:round;stroke-width:2;"/>
    <path clip-path="url(#p7cc480ceaf)" d="M 243.192406 423.634062 
L 238.736452 424.01416 
L 241.105946 420.221338 
" style="fill:none;stroke:#000000;stroke-linecap:round;stroke-width:2;"/>
   </g>
   <g id="patch_11">
    <path clip-path="url(#p7cc480ceaf)" d="M 442.13766 299.659411 
Q 593.619214 341.691717 742.946108 383.126161 
" style="fill:none;stroke:#000000;stroke-linecap:round;stroke-width:2;"/>
    <path clip-path="url(#p7cc480ceaf)" d="M 739.626481 380.129483 
L 742.946108 383.126161 
L 738.55699 383.983856 
" style="fill:none;stroke:#000000;stroke-linecap:round;stroke-width:2;"/>
   </g>
   <g id="patch_12">
    <path clip-path="url(#p7cc480ceaf)" d="M 442.13766 299.659411 
Q 585.589335 297.335193 726.805235 295.047199 
" style="fill:none;stroke:#000000;stroke-linecap:round;stroke-width:2;"/>
    <path clip-path="url(#p7cc480ceaf)" d="M 722.77336 293.112261 
L 726.805235 295.047199 
L 722.83816 297.111736 
" style="fill:none;stroke:#000000;stroke-linecap:round;stroke-width:2;"/>
   </g>
   <g id="patch_13">
    <path clip-path="url(#p7cc480ceaf)" d="M 442.13766 299.659411 
Q 277.650484 286.623725 115.392388 273.764695 
" style="fill:none;stroke:#000000;stroke-linecap:round;stroke-width:2;"/>
    <path clip-path="url(#p7cc480ceaf)" d="M 119.22188 276.074455 
L 115.392388 273.764695 
L 119.537891 272.086958 
" style="fill:none;stroke:#000000;stroke-linecap:round;stroke-width:2;"/>
   </g>
   <g id="patch_14">
    <path clip-path="url(#p7cc480ceaf)" d="M 442.13766 299.659411 
Q 574.294678 254.912976 704.333737 210.883651 
" style="fill:none;stroke:#000000;stroke-linecap:round;stroke-width:2;"/>
    <path clip-path="url(#p7cc480ceaf)" d="M 699.903613 210.272096 
L 704.333737 210.883651 
L 701.186418 214.060817 
" style="fill:none;stroke:#000000;stroke-linecap:round;stroke-width:2;"/>
   </g>
   <g id="patch_15">
    <path clip-path="url(#p7cc480ceaf)" d="M 442.13766 299.659411 
Q 417.995486 192.773448 394.34596 88.06861 
" style="fill:none;stroke:#000000;stroke-linecap:round;stroke-width:2;"/>
    <path clip-path="url(#p7cc480ceaf)" d="M 393.276378 92.410958 
L 394.34596 88.06861 
L 397.17809 91.529685 
" style="fill:none;stroke:#000000;stroke-linecap:round;stroke-width:2;"/>
   </g>
   <g id="patch_16">
    <path clip-path="url(#p7cc480ceaf)" d="M 442.13766 299.659411 
Q 517.685603 404.370293 591.925222 507.267812 
" style="fill:none;stroke:#000000;stroke-linecap:round;stroke-width:2;"/>
    <path clip-path="url(#p7cc480ceaf)" d="M 591.20674 502.853768 
L 591.925222 507.267812 
L 587.962898 505.194171 
" style="fill:none;stroke:#000000;stroke-linecap:round;stroke-width:2;"/>
   </g>
   <g id="PathCollection_1">
    <path clip-path="url(#p7cc480ceaf)" d="M 442.13766 304.659411 
C 443.463675 304.659411 444.735559 304.132579 445.673194 303.194944 
C 446.610828 302.25731 447.13766 300.985426 447.13766 299.659411 
C 447.13766 298.333395 446.610828 297.061511 445.673194 296.123877 
C 444.735559 295.186242 443.463675 294.659411 442.13766 294.659411 
C 440.811644 294.659411 439.53976 295.186242 438.602126 296.123877 
C 437.664491 297.061511 437.13766 298.333395 437.13766 299.659411 
C 437.13766 300.985426 437.664491 302.25731 438.602126 303.194944 
C 439.53976 304.132579 440.811644 304.659411 442.13766 304.659411 
z
" style="fill:#ffc0cb;stroke:#ffc0cb;"/>
    <path clip-path="url(#p7cc480ceaf)" d="M 258.519576 170.642365 
C 274.477003 170.642365 289.783004 164.302412 301.066609 153.018807 
C 312.350214 141.735202 318.690167 126.429202 318.690167 110.471774 
C 318.690167 94.514347 312.350214 79.208347 301.066609 67.924742 
C 289.783004 56.641137 274.477003 50.301184 258.519576 50.301184 
C 242.562149 50.301184 227.256148 56.641137 215.972543 67.924742 
C 204.688938 79.208347 198.348985 94.514347 198.348985 110.471774 
C 198.348985 126.429202 204.688938 141.735202 215.972543 153.018807 
C 227.256148 164.302412 242.562149 170.642365 258.519576 170.642365 
z
" style="fill:#ffc0cb;stroke:#ffc0cb;"/>
    <path clip-path="url(#p7cc480ceaf)" d="M 441.346894 535.232083 
C 445.592215 535.232083 449.66423 533.545399 452.666125 530.543504 
C 455.668021 527.541609 457.354704 523.469594 457.354704 519.224273 
C 457.354704 514.978952 455.668021 510.906937 452.666125 507.905041 
C 449.66423 504.903146 445.592215 503.216462 441.346894 503.216462 
C 437.101573 503.216462 433.029558 504.903146 430.027662 507.905041 
C 427.025767 510.906937 425.339083 514.978952 425.339083 519.224273 
C 425.339083 523.469594 427.025767 527.541609 430.027662 530.543504 
C 433.029558 533.545399 437.101573 535.232083 441.346894 535.232083 
z
" style="fill:#ffc0cb;stroke:#ffc0cb;"/>
    <path clip-path="url(#p7cc480ceaf)" d="M 651.739201 461.047366 
C 655.93243 461.047366 659.95448 459.381379 662.919541 456.416318 
C 665.884602 453.451257 667.550589 449.429207 667.550589 445.235978 
C 667.550589 441.042749 665.884602 437.020699 662.919541 434.055638 
C 659.95448 431.090577 655.93243 429.42459 651.739201 429.42459 
C 647.545972 429.42459 643.523922 431.090577 640.558861 434.055638 
C 637.5938 437.020699 635.927813 441.042749 635.927813 445.235978 
C 635.927813 449.429207 637.5938 453.451257 640.558861 456.416318 
C 643.523922 459.381379 647.545972 461.047366 651.739201 461.047366 
z
" style="fill:#ffc0cb;stroke:#ffc0cb;"/>
    <path clip-path="url(#p7cc480ceaf)" d="M 533.969399 92.864752 
C 536.385514 92.864752 538.702996 91.90482 540.411448 90.196368 
C 542.119899 88.487917 543.079832 86.170434 543.079832 83.754319 
C 543.079832 81.338203 542.119899 79.020721 540.411448 77.312269 
C 538.702996 75.603818 536.385514 74.643885 533.969399 74.643885 
C 531.553283 74.643885 529.235801 75.603818 527.527349 77.312269 
C 525.818898 79.020721 524.858965 81.338203 524.858965 83.754319 
C 524.858965 86.170434 525.818898 88.487917 527.527349 90.196368 
C 529.235801 91.90482 531.553283 92.864752 533.969399 92.864752 
z
" style="fill:#ffc0cb;stroke:#ffc0cb;"/>
    <path clip-path="url(#p7cc480ceaf)" d="M 662.024686 139.430409 
C 664.433513 139.430409 666.744005 138.473372 668.447303 136.770075 
C 670.1506 135.066777 671.107637 132.756285 671.107637 130.347458 
C 671.107637 127.938632 670.1506 125.62814 668.447303 123.924842 
C 666.744005 122.221544 664.433513 121.264507 662.024686 121.264507 
C 659.615859 121.264507 657.305368 122.221544 655.60207 123.924842 
C 653.898772 125.62814 652.941735 127.938632 652.941735 130.347458 
C 652.941735 132.756285 653.898772 135.066777 655.60207 136.770075 
C 657.305368 138.473372 659.615859 139.430409 662.024686 139.430409 
z
" style="fill:#ffc0cb;stroke:#ffc0cb;"/>
    <path clip-path="url(#p7cc480ceaf)" d="M 144.389633 372.779201 
C 146.608481 372.779201 148.73675 371.897643 150.305713 370.32868 
C 151.874676 368.759718 152.756233 366.631449 152.756233 364.4126 
C 152.756233 362.193752 151.874676 360.065483 150.305713 358.496521 
C 148.73675 356.927558 146.608481 356.046 144.389633 356.046 
C 142.170785 356.046 140.042516 356.927558 138.473553 358.496521 
C 136.904591 360.065483 136.023033 362.193752 136.023033 364.4126 
C 136.023033 366.631449 136.904591 368.759718 138.473553 370.32868 
C 140.042516 371.897643 142.170785 372.779201 144.389633 372.779201 
z
" style="fill:#ffc0cb;stroke:#ffc0cb;"/>
    <path clip-path="url(#p7cc480ceaf)" d="M 288.246505 506.865291 
C 290.313559 506.865291 292.296229 506.044042 293.757857 504.582414 
C 295.219485 503.120787 296.040734 501.138116 296.040734 499.071062 
C 296.040734 497.004009 295.219485 495.021338 293.757857 493.55971 
C 292.296229 492.098083 290.313559 491.276834 288.246505 491.276834 
C 286.179451 491.276834 284.196781 492.098083 282.735153 493.55971 
C 281.273525 495.021338 280.452276 497.004009 280.452276 499.071062 
C 280.452276 501.138116 281.273525 503.120787 282.735153 504.582414 
C 284.196781 506.044042 286.179451 506.865291 288.246505 506.865291 
z
" style="fill:#ffc0cb;stroke:#ffc0cb;"/>
    <path clip-path="url(#p7cc480ceaf)" d="M 152.216633 184.493683 
C 154.178957 184.493683 156.061173 183.714043 157.448745 182.326471 
C 158.836318 180.938899 159.615957 179.056682 159.615957 177.094359 
C 159.615957 175.132035 158.836318 173.249819 157.448745 171.862246 
C 156.061173 170.474674 154.178957 169.695034 152.216633 169.695034 
C 150.254309 169.695034 148.372093 170.474674 146.984521 171.862246 
C 145.596948 173.249819 144.817309 175.132035 144.817309 177.094359 
C 144.817309 179.056682 145.596948 180.938899 146.984521 182.326471 
C 148.372093 183.714043 150.254309 184.493683 152.216633 184.493683 
z
" style="fill:#ffc0cb;stroke:#ffc0cb;"/>
    <path clip-path="url(#p7cc480ceaf)" d="M 230.589003 436.30969 
C 232.528796 436.30969 234.389402 435.539002 235.761043 434.167361 
C 237.132684 432.795719 237.903372 430.935114 237.903372 428.99532 
C 237.903372 427.055527 237.132684 425.194921 235.761043 423.82328 
C 234.389402 422.451639 232.528796 421.680951 230.589003 421.680951 
C 228.649209 421.680951 226.788603 422.451639 225.416962 423.82328 
C 224.045321 425.194921 223.274633 427.055527 223.274633 428.99532 
C 223.274633 430.935114 224.045321 432.795719 225.416962 434.167361 
C 226.788603 435.539002 228.649209 436.30969 230.589003 436.30969 
z
" style="fill:#ffc0cb;stroke:#ffc0cb;"/>
    <path clip-path="url(#p7cc480ceaf)" d="M 751.89273 392.66199 
C 753.763305 392.66199 755.557518 391.918803 756.880214 390.596107 
C 758.20291 389.27341 758.946098 387.479197 758.946098 385.608622 
C 758.946098 383.738047 758.20291 381.943834 756.880214 380.621138 
C 755.557518 379.298442 753.763305 378.555254 751.89273 378.555254 
C 750.022155 378.555254 748.227942 379.298442 746.905246 380.621138 
C 745.582549 381.943834 744.839362 383.738047 744.839362 385.608622 
C 744.839362 387.479197 745.582549 389.27341 746.905246 390.596107 
C 748.227942 391.918803 750.022155 392.66199 751.89273 392.66199 
z
" style="fill:#ffc0cb;stroke:#ffc0cb;"/>
    <path clip-path="url(#p7cc480ceaf)" d="M 736.023122 301.87997 
C 737.874801 301.87997 739.650891 301.14429 740.960226 299.834954 
C 742.269561 298.525619 743.005242 296.74953 743.005242 294.89785 
C 743.005242 293.04617 742.269561 291.270081 740.960226 289.960746 
C 739.650891 288.65141 737.874801 287.91573 736.023122 287.91573 
C 734.171442 287.91573 732.395353 288.65141 731.086017 289.960746 
C 729.776682 291.270081 729.041002 293.04617 729.041002 294.89785 
C 729.041002 296.74953 729.776682 298.525619 731.086017 299.834954 
C 732.395353 301.14429 734.171442 301.87997 736.023122 301.87997 
z
" style="fill:#ffc0cb;stroke:#ffc0cb;"/>
    <path clip-path="url(#p7cc480ceaf)" d="M 106.272895 279.952109 
C 108.105485 279.952109 109.863263 279.224013 111.1591 277.928176 
C 112.454937 276.63234 113.183033 274.874561 113.183033 273.041971 
C 113.183033 271.209381 112.454937 269.451603 111.1591 268.155766 
C 109.863263 266.859929 108.105485 266.131834 106.272895 266.131834 
C 104.440305 266.131834 102.682527 266.859929 101.38669 268.155766 
C 100.090853 269.451603 99.362758 271.209381 99.362758 273.041971 
C 99.362758 274.874561 100.090853 276.63234 101.38669 277.928176 
C 102.682527 279.224013 104.440305 279.952109 106.272895 279.952109 
z
" style="fill:#ffc0cb;stroke:#ffc0cb;"/>
    <path clip-path="url(#p7cc480ceaf)" d="M 712.926397 214.811699 
C 714.739696 214.811699 716.478971 214.091268 717.761167 212.809072 
C 719.043363 211.526876 719.763794 209.787601 719.763794 207.974302 
C 719.763794 206.161003 719.043363 204.421728 717.761167 203.139532 
C 716.478971 201.857336 714.739696 201.136905 712.926397 201.136905 
C 711.113098 201.136905 709.373823 201.857336 708.091627 203.139532 
C 706.809431 204.421728 706.089 206.161003 706.089 207.974302 
C 706.089 209.787601 706.809431 211.526876 708.091627 212.809072 
C 709.373823 214.091268 711.113098 214.811699 712.926397 214.811699 
z
" style="fill:#ffc0cb;stroke:#ffc0cb;"/>
    <path clip-path="url(#p7cc480ceaf)" d="M 392.417142 86.048248 
C 394.146054 86.048248 395.804388 85.361343 397.026914 84.138818 
C 398.24944 82.916292 398.936344 81.257958 398.936344 79.529045 
C 398.936344 77.800133 398.24944 76.141799 397.026914 74.919273 
C 395.804388 73.696747 394.146054 73.009843 392.417142 73.009843 
C 390.688229 73.009843 389.029895 73.696747 387.807369 74.919273 
C 386.584843 76.141799 385.897939 77.800133 385.897939 79.529045 
C 385.897939 81.257958 386.584843 82.916292 387.807369 84.138818 
C 389.029895 85.361343 390.688229 86.048248 392.417142 86.048248 
z
" style="fill:#ffc0cb;stroke:#ffc0cb;"/>
    <path clip-path="url(#p7cc480ceaf)" d="M 596.92031 520.495859 
C 598.592352 520.495859 600.196136 519.83155 601.378448 518.649238 
C 602.560761 517.466926 603.22507 515.863141 603.22507 514.191099 
C 603.22507 512.519057 602.560761 510.915273 601.378448 509.732961 
C 600.196136 508.550648 598.592352 507.886339 596.92031 507.886339 
C 595.248268 507.886339 593.644483 508.550648 592.462171 509.732961 
C 591.279859 510.915273 590.61555 512.519057 590.61555 514.191099 
C 590.61555 515.863141 591.279859 517.466926 592.462171 518.649238 
C 593.644483 519.83155 595.248268 520.495859 596.92031 520.495859 
z
" style="fill:#ffc0cb;stroke:#ffc0cb;"/>
   </g>
   <g id="text_1">
    <g clip-path="url(#p7cc480ceaf)">
     <!-- France -->
     <defs>
      <path d="M 9.8125 72.90625 
L 51.703125 72.90625 
L 51.703125 64.59375 
L 19.671875 64.59375 
L 19.671875 43.109375 
L 48.578125 43.109375 
L 48.578125 34.8125 
L 19.671875 34.8125 
L 19.671875 0 
L 9.8125 0 
z
" id="DejaVuSans-70"/>
      <path d="M 41.109375 46.296875 
Q 39.59375 47.171875 37.8125 47.578125 
Q 36.03125 48 33.890625 48 
Q 26.265625 48 22.1875 43.046875 
Q 18.109375 38.09375 18.109375 28.8125 
L 18.109375 0 
L 9.078125 0 
L 9.078125 54.6875 
L 18.109375 54.6875 
L 18.109375 46.1875 
Q 20.953125 51.171875 25.484375 53.578125 
Q 30.03125 56 36.53125 56 
Q 37.453125 56 38.578125 55.875 
Q 39.703125 55.765625 41.0625 55.515625 
z
" id="DejaVuSans-114"/>
      <path d="M 34.28125 27.484375 
Q 23.390625 27.484375 19.1875 25 
Q 14.984375 22.515625 14.984375 16.5 
Q 14.984375 11.71875 18.140625 8.90625 
Q 21.296875 6.109375 26.703125 6.109375 
Q 34.1875 6.109375 38.703125 11.40625 
Q 43.21875 16.703125 43.21875 25.484375 
L 43.21875 27.484375 
z
M 52.203125 31.203125 
L 52.203125 0 
L 43.21875 0 
L 43.21875 8.296875 
Q 40.140625 3.328125 35.546875 0.953125 
Q 30.953125 -1.421875 24.3125 -1.421875 
Q 15.921875 -1.421875 10.953125 3.296875 
Q 6 8.015625 6 15.921875 
Q 6 25.140625 12.171875 29.828125 
Q 18.359375 34.515625 30.609375 34.515625 
L 43.21875 34.515625 
L 43.21875 35.40625 
Q 43.21875 41.609375 39.140625 45 
Q 35.0625 48.390625 27.6875 48.390625 
Q 23 48.390625 18.546875 47.265625 
Q 14.109375 46.140625 10.015625 43.890625 
L 10.015625 52.203125 
Q 14.9375 54.109375 19.578125 55.046875 
Q 24.21875 56 28.609375 56 
Q 40.484375 56 46.34375 49.84375 
Q 52.203125 43.703125 52.203125 31.203125 
z
" id="DejaVuSans-97"/>
      <path d="M 54.890625 33.015625 
L 54.890625 0 
L 45.90625 0 
L 45.90625 32.71875 
Q 45.90625 40.484375 42.875 44.328125 
Q 39.84375 48.1875 33.796875 48.1875 
Q 26.515625 48.1875 22.3125 43.546875 
Q 18.109375 38.921875 18.109375 30.90625 
L 18.109375 0 
L 9.078125 0 
L 9.078125 54.6875 
L 18.109375 54.6875 
L 18.109375 46.1875 
Q 21.34375 51.125 25.703125 53.5625 
Q 30.078125 56 35.796875 56 
Q 45.21875 56 50.046875 50.171875 
Q 54.890625 44.34375 54.890625 33.015625 
z
" id="DejaVuSans-110"/>
      <path d="M 48.78125 52.59375 
L 48.78125 44.1875 
Q 44.96875 46.296875 41.140625 47.34375 
Q 37.3125 48.390625 33.40625 48.390625 
Q 24.65625 48.390625 19.8125 42.84375 
Q 14.984375 37.3125 14.984375 27.296875 
Q 14.984375 17.28125 19.8125 11.734375 
Q 24.65625 6.203125 33.40625 6.203125 
Q 37.3125 6.203125 41.140625 7.25 
Q 44.96875 8.296875 48.78125 10.40625 
L 48.78125 2.09375 
Q 45.015625 0.34375 40.984375 -0.53125 
Q 36.96875 -1.421875 32.421875 -1.421875 
Q 20.0625 -1.421875 12.78125 6.34375 
Q 5.515625 14.109375 5.515625 27.296875 
Q 5.515625 40.671875 12.859375 48.328125 
Q 20.21875 56 33.015625 56 
Q 37.15625 56 41.109375 55.140625 
Q 45.0625 54.296875 48.78125 52.59375 
z
" id="DejaVuSans-99"/>
      <path d="M 56.203125 29.59375 
L 56.203125 25.203125 
L 14.890625 25.203125 
Q 15.484375 15.921875 20.484375 11.0625 
Q 25.484375 6.203125 34.421875 6.203125 
Q 39.59375 6.203125 44.453125 7.46875 
Q 49.3125 8.734375 54.109375 11.28125 
L 54.109375 2.78125 
Q 49.265625 0.734375 44.1875 -0.34375 
Q 39.109375 -1.421875 33.890625 -1.421875 
Q 20.796875 -1.421875 13.15625 6.1875 
Q 5.515625 13.8125 5.515625 26.8125 
Q 5.515625 40.234375 12.765625 48.109375 
Q 20.015625 56 32.328125 56 
Q 43.359375 56 49.78125 48.890625 
Q 56.203125 41.796875 56.203125 29.59375 
z
M 47.21875 32.234375 
Q 47.125 39.59375 43.09375 43.984375 
Q 39.0625 48.390625 32.421875 48.390625 
Q 24.90625 48.390625 20.390625 44.140625 
Q 15.875 39.890625 15.1875 32.171875 
z
" id="DejaVuSans-101"/>
     </defs>
     <g transform="translate(238.138326 113.783024)scale(0.12 -0.12)">
      <use xlink:href="#DejaVuSans-70"/>
      <use x="57.410156" xlink:href="#DejaVuSans-114"/>
      <use x="98.523438" xlink:href="#DejaVuSans-97"/>
      <use x="159.802734" xlink:href="#DejaVuSans-110"/>
      <use x="223.181641" xlink:href="#DejaVuSans-99"/>
      <use x="278.162109" xlink:href="#DejaVuSans-101"/>
     </g>
    </g>
   </g>
   <g id="text_2">
    <g clip-path="url(#p7cc480ceaf)">
     <!-- Espagne -->
     <defs>
      <path d="M 9.8125 72.90625 
L 55.90625 72.90625 
L 55.90625 64.59375 
L 19.671875 64.59375 
L 19.671875 43.015625 
L 54.390625 43.015625 
L 54.390625 34.71875 
L 19.671875 34.71875 
L 19.671875 8.296875 
L 56.78125 8.296875 
L 56.78125 0 
L 9.8125 0 
z
" id="DejaVuSans-69"/>
      <path d="M 44.28125 53.078125 
L 44.28125 44.578125 
Q 40.484375 46.53125 36.375 47.5 
Q 32.28125 48.484375 27.875 48.484375 
Q 21.1875 48.484375 17.84375 46.4375 
Q 14.5 44.390625 14.5 40.28125 
Q 14.5 37.15625 16.890625 35.375 
Q 19.28125 33.59375 26.515625 31.984375 
L 29.59375 31.296875 
Q 39.15625 29.25 43.1875 25.515625 
Q 47.21875 21.78125 47.21875 15.09375 
Q 47.21875 7.46875 41.1875 3.015625 
Q 35.15625 -1.421875 24.609375 -1.421875 
Q 20.21875 -1.421875 15.453125 -0.5625 
Q 10.6875 0.296875 5.421875 2 
L 5.421875 11.28125 
Q 10.40625 8.6875 15.234375 7.390625 
Q 20.0625 6.109375 24.8125 6.109375 
Q 31.15625 6.109375 34.5625 8.28125 
Q 37.984375 10.453125 37.984375 14.40625 
Q 37.984375 18.0625 35.515625 20.015625 
Q 33.0625 21.96875 24.703125 23.78125 
L 21.578125 24.515625 
Q 13.234375 26.265625 9.515625 29.90625 
Q 5.8125 33.546875 5.8125 39.890625 
Q 5.8125 47.609375 11.28125 51.796875 
Q 16.75 56 26.8125 56 
Q 31.78125 56 36.171875 55.265625 
Q 40.578125 54.546875 44.28125 53.078125 
z
" id="DejaVuSans-115"/>
      <path d="M 18.109375 8.203125 
L 18.109375 -20.796875 
L 9.078125 -20.796875 
L 9.078125 54.6875 
L 18.109375 54.6875 
L 18.109375 46.390625 
Q 20.953125 51.265625 25.265625 53.625 
Q 29.59375 56 35.59375 56 
Q 45.5625 56 51.78125 48.09375 
Q 58.015625 40.1875 58.015625 27.296875 
Q 58.015625 14.40625 51.78125 6.484375 
Q 45.5625 -1.421875 35.59375 -1.421875 
Q 29.59375 -1.421875 25.265625 0.953125 
Q 20.953125 3.328125 18.109375 8.203125 
z
M 48.6875 27.296875 
Q 48.6875 37.203125 44.609375 42.84375 
Q 40.53125 48.484375 33.40625 48.484375 
Q 26.265625 48.484375 22.1875 42.84375 
Q 18.109375 37.203125 18.109375 27.296875 
Q 18.109375 17.390625 22.1875 11.75 
Q 26.265625 6.109375 33.40625 6.109375 
Q 40.53125 6.109375 44.609375 11.75 
Q 48.6875 17.390625 48.6875 27.296875 
z
" id="DejaVuSans-112"/>
      <path d="M 45.40625 27.984375 
Q 45.40625 37.75 41.375 43.109375 
Q 37.359375 48.484375 30.078125 48.484375 
Q 22.859375 48.484375 18.828125 43.109375 
Q 14.796875 37.75 14.796875 27.984375 
Q 14.796875 18.265625 18.828125 12.890625 
Q 22.859375 7.515625 30.078125 7.515625 
Q 37.359375 7.515625 41.375 12.890625 
Q 45.40625 18.265625 45.40625 27.984375 
z
M 54.390625 6.78125 
Q 54.390625 -7.171875 48.1875 -13.984375 
Q 42 -20.796875 29.203125 -20.796875 
Q 24.46875 -20.796875 20.265625 -20.09375 
Q 16.0625 -19.390625 12.109375 -17.921875 
L 12.109375 -9.1875 
Q 16.0625 -11.328125 19.921875 -12.34375 
Q 23.78125 -13.375 27.78125 -13.375 
Q 36.625 -13.375 41.015625 -8.765625 
Q 45.40625 -4.15625 45.40625 5.171875 
L 45.40625 9.625 
Q 42.625 4.78125 38.28125 2.390625 
Q 33.9375 0 27.875 0 
Q 17.828125 0 11.671875 7.65625 
Q 5.515625 15.328125 5.515625 27.984375 
Q 5.515625 40.671875 11.671875 48.328125 
Q 17.828125 56 27.875 56 
Q 33.9375 56 38.28125 53.609375 
Q 42.625 51.21875 45.40625 46.390625 
L 45.40625 54.6875 
L 54.390625 54.6875 
z
" id="DejaVuSans-103"/>
     </defs>
     <g transform="translate(415.640644 522.535523)scale(0.12 -0.12)">
      <use xlink:href="#DejaVuSans-69"/>
      <use x="63.183594" xlink:href="#DejaVuSans-115"/>
      <use x="115.283203" xlink:href="#DejaVuSans-112"/>
      <use x="178.759766" xlink:href="#DejaVuSans-97"/>
      <use x="240.039062" xlink:href="#DejaVuSans-103"/>
      <use x="303.515625" xlink:href="#DejaVuSans-110"/>
      <use x="366.894531" xlink:href="#DejaVuSans-101"/>
     </g>
    </g>
   </g>
   <g id="text_3">
    <g clip-path="url(#p7cc480ceaf)">
     <!-- Italie -->
     <defs>
      <path d="M 9.8125 72.90625 
L 19.671875 72.90625 
L 19.671875 0 
L 9.8125 0 
z
" id="DejaVuSans-73"/>
      <path d="M 18.3125 70.21875 
L 18.3125 54.6875 
L 36.8125 54.6875 
L 36.8125 47.703125 
L 18.3125 47.703125 
L 18.3125 18.015625 
Q 18.3125 11.328125 20.140625 9.421875 
Q 21.96875 7.515625 27.59375 7.515625 
L 36.8125 7.515625 
L 36.8125 0 
L 27.59375 0 
Q 17.1875 0 13.234375 3.875 
Q 9.28125 7.765625 9.28125 18.015625 
L 9.28125 47.703125 
L 2.6875 47.703125 
L 2.6875 54.6875 
L 9.28125 54.6875 
L 9.28125 70.21875 
z
" id="DejaVuSans-116"/>
      <path d="M 9.421875 75.984375 
L 18.40625 75.984375 
L 18.40625 0 
L 9.421875 0 
z
" id="DejaVuSans-108"/>
      <path d="M 9.421875 54.6875 
L 18.40625 54.6875 
L 18.40625 0 
L 9.421875 0 
z
M 9.421875 75.984375 
L 18.40625 75.984375 
L 18.40625 64.59375 
L 9.421875 64.59375 
z
" id="DejaVuSans-105"/>
     </defs>
     <g transform="translate(636.914514 448.547228)scale(0.12 -0.12)">
      <use xlink:href="#DejaVuSans-73"/>
      <use x="29.492188" xlink:href="#DejaVuSans-116"/>
      <use x="68.701172" xlink:href="#DejaVuSans-97"/>
      <use x="129.980469" xlink:href="#DejaVuSans-108"/>
      <use x="157.763672" xlink:href="#DejaVuSans-105"/>
      <use x="185.546875" xlink:href="#DejaVuSans-101"/>
     </g>
    </g>
   </g>
   <g id="text_4">
    <g clip-path="url(#p7cc480ceaf)">
     <!-- Bretagne -->
     <defs>
      <path d="M 19.671875 34.8125 
L 19.671875 8.109375 
L 35.5 8.109375 
Q 43.453125 8.109375 47.28125 11.40625 
Q 51.125 14.703125 51.125 21.484375 
Q 51.125 28.328125 47.28125 31.5625 
Q 43.453125 34.8125 35.5 34.8125 
z
M 19.671875 64.796875 
L 19.671875 42.828125 
L 34.28125 42.828125 
Q 41.5 42.828125 45.03125 45.53125 
Q 48.578125 48.25 48.578125 53.8125 
Q 48.578125 59.328125 45.03125 62.0625 
Q 41.5 64.796875 34.28125 64.796875 
z
M 9.8125 72.90625 
L 35.015625 72.90625 
Q 46.296875 72.90625 52.390625 68.21875 
Q 58.5 63.53125 58.5 54.890625 
Q 58.5 48.1875 55.375 44.234375 
Q 52.25 40.28125 46.1875 39.3125 
Q 53.46875 37.75 57.5 32.78125 
Q 61.53125 27.828125 61.53125 20.40625 
Q 61.53125 10.640625 54.890625 5.3125 
Q 48.25 0 35.984375 0 
L 9.8125 0 
z
" id="DejaVuSans-66"/>
     </defs>
     <g transform="translate(506.363774 87.065569)scale(0.12 -0.12)">
      <use xlink:href="#DejaVuSans-66"/>
      <use x="68.603516" xlink:href="#DejaVuSans-114"/>
      <use x="109.685547" xlink:href="#DejaVuSans-101"/>
      <use x="171.208984" xlink:href="#DejaVuSans-116"/>
      <use x="210.417969" xlink:href="#DejaVuSans-97"/>
      <use x="271.697266" xlink:href="#DejaVuSans-103"/>
      <use x="335.173828" xlink:href="#DejaVuSans-110"/>
      <use x="398.552734" xlink:href="#DejaVuSans-101"/>
     </g>
    </g>
   </g>
   <g id="text_5">
    <g clip-path="url(#p7cc480ceaf)">
     <!-- Pérou -->
     <defs>
      <path d="M 19.671875 64.796875 
L 19.671875 37.40625 
L 32.078125 37.40625 
Q 38.96875 37.40625 42.71875 40.96875 
Q 46.484375 44.53125 46.484375 51.125 
Q 46.484375 57.671875 42.71875 61.234375 
Q 38.96875 64.796875 32.078125 64.796875 
z
M 9.8125 72.90625 
L 32.078125 72.90625 
Q 44.34375 72.90625 50.609375 67.359375 
Q 56.890625 61.8125 56.890625 51.125 
Q 56.890625 40.328125 50.609375 34.8125 
Q 44.34375 29.296875 32.078125 29.296875 
L 19.671875 29.296875 
L 19.671875 0 
L 9.8125 0 
z
" id="DejaVuSans-80"/>
      <path d="M 56.203125 29.59375 
L 56.203125 25.203125 
L 14.890625 25.203125 
Q 15.484375 15.921875 20.484375 11.0625 
Q 25.484375 6.203125 34.421875 6.203125 
Q 39.59375 6.203125 44.453125 7.46875 
Q 49.3125 8.734375 54.109375 11.28125 
L 54.109375 2.78125 
Q 49.265625 0.734375 44.1875 -0.34375 
Q 39.109375 -1.421875 33.890625 -1.421875 
Q 20.796875 -1.421875 13.15625 6.1875 
Q 5.515625 13.8125 5.515625 26.8125 
Q 5.515625 40.234375 12.765625 48.109375 
Q 20.015625 56 32.328125 56 
Q 43.359375 56 49.78125 48.890625 
Q 56.203125 41.796875 56.203125 29.59375 
z
M 47.21875 32.234375 
Q 47.125 39.59375 43.09375 43.984375 
Q 39.0625 48.390625 32.421875 48.390625 
Q 24.90625 48.390625 20.390625 44.140625 
Q 15.875 39.890625 15.1875 32.171875 
z
M 38.578125 79.984375 
L 48.296875 79.984375 
L 32.375 61.625 
L 24.90625 61.625 
z
" id="DejaVuSans-233"/>
      <path d="M 30.609375 48.390625 
Q 23.390625 48.390625 19.1875 42.75 
Q 14.984375 37.109375 14.984375 27.296875 
Q 14.984375 17.484375 19.15625 11.84375 
Q 23.34375 6.203125 30.609375 6.203125 
Q 37.796875 6.203125 41.984375 11.859375 
Q 46.1875 17.53125 46.1875 27.296875 
Q 46.1875 37.015625 41.984375 42.703125 
Q 37.796875 48.390625 30.609375 48.390625 
z
M 30.609375 56 
Q 42.328125 56 49.015625 48.375 
Q 55.71875 40.765625 55.71875 27.296875 
Q 55.71875 13.875 49.015625 6.21875 
Q 42.328125 -1.421875 30.609375 -1.421875 
Q 18.84375 -1.421875 12.171875 6.21875 
Q 5.515625 13.875 5.515625 27.296875 
Q 5.515625 40.765625 12.171875 48.375 
Q 18.84375 56 30.609375 56 
z
" id="DejaVuSans-111"/>
      <path d="M 8.5 21.578125 
L 8.5 54.6875 
L 17.484375 54.6875 
L 17.484375 21.921875 
Q 17.484375 14.15625 20.5 10.265625 
Q 23.53125 6.390625 29.59375 6.390625 
Q 36.859375 6.390625 41.078125 11.03125 
Q 45.3125 15.671875 45.3125 23.6875 
L 45.3125 54.6875 
L 54.296875 54.6875 
L 54.296875 0 
L 45.3125 0 
L 45.3125 8.40625 
Q 42.046875 3.421875 37.71875 1 
Q 33.40625 -1.421875 27.6875 -1.421875 
Q 18.265625 -1.421875 13.375 4.4375 
Q 8.5 10.296875 8.5 21.578125 
z
M 31.109375 56 
z
" id="DejaVuSans-117"/>
     </defs>
     <g transform="translate(644.779374 133.658708)scale(0.12 -0.12)">
      <use xlink:href="#DejaVuSans-80"/>
      <use x="60.255859" xlink:href="#DejaVuSans-233"/>
      <use x="121.779297" xlink:href="#DejaVuSans-114"/>
      <use x="162.861328" xlink:href="#DejaVuSans-111"/>
      <use x="224.042969" xlink:href="#DejaVuSans-117"/>
     </g>
    </g>
   </g>
   <g id="text_6">
    <g clip-path="url(#p7cc480ceaf)">
     <!-- Norvège -->
     <defs>
      <path d="M 9.8125 72.90625 
L 23.09375 72.90625 
L 55.421875 11.921875 
L 55.421875 72.90625 
L 64.984375 72.90625 
L 64.984375 0 
L 51.703125 0 
L 19.390625 60.984375 
L 19.390625 0 
L 9.8125 0 
z
" id="DejaVuSans-78"/>
      <path d="M 2.984375 54.6875 
L 12.5 54.6875 
L 29.59375 8.796875 
L 46.6875 54.6875 
L 56.203125 54.6875 
L 35.6875 0 
L 23.484375 0 
z
" id="DejaVuSans-118"/>
      <path d="M 56.203125 29.59375 
L 56.203125 25.203125 
L 14.890625 25.203125 
Q 15.484375 15.921875 20.484375 11.0625 
Q 25.484375 6.203125 34.421875 6.203125 
Q 39.59375 6.203125 44.453125 7.46875 
Q 49.3125 8.734375 54.109375 11.28125 
L 54.109375 2.78125 
Q 49.265625 0.734375 44.1875 -0.34375 
Q 39.109375 -1.421875 33.890625 -1.421875 
Q 20.796875 -1.421875 13.15625 6.1875 
Q 5.515625 13.8125 5.515625 26.8125 
Q 5.515625 40.234375 12.765625 48.109375 
Q 20.015625 56 32.328125 56 
Q 43.359375 56 49.78125 48.890625 
Q 56.203125 41.796875 56.203125 29.59375 
z
M 47.21875 32.234375 
Q 47.125 39.59375 43.09375 43.984375 
Q 39.0625 48.390625 32.421875 48.390625 
Q 24.90625 48.390625 20.390625 44.140625 
Q 15.875 39.890625 15.1875 32.171875 
z
M 24.703125 79.984375 
L 38.484375 61.71875 
L 31 61.71875 
L 15.09375 79.984375 
z
" id="DejaVuSans-232"/>
     </defs>
     <g transform="translate(119.019008 367.96385)scale(0.12 -0.12)">
      <use xlink:href="#DejaVuSans-78"/>
      <use x="74.804688" xlink:href="#DejaVuSans-111"/>
      <use x="135.986328" xlink:href="#DejaVuSans-114"/>
      <use x="177.099609" xlink:href="#DejaVuSans-118"/>
      <use x="236.279297" xlink:href="#DejaVuSans-232"/>
      <use x="297.802734" xlink:href="#DejaVuSans-103"/>
      <use x="361.279297" xlink:href="#DejaVuSans-101"/>
     </g>
    </g>
   </g>
   <g id="text_7">
    <g clip-path="url(#p7cc480ceaf)">
     <!-- Allemagne -->
     <defs>
      <path d="M 34.1875 63.1875 
L 20.796875 26.90625 
L 47.609375 26.90625 
z
M 28.609375 72.90625 
L 39.796875 72.90625 
L 67.578125 0 
L 57.328125 0 
L 50.6875 18.703125 
L 17.828125 18.703125 
L 11.1875 0 
L 0.78125 0 
z
" id="DejaVuSans-65"/>
      <path d="M 52 44.1875 
Q 55.375 50.25 60.0625 53.125 
Q 64.75 56 71.09375 56 
Q 79.640625 56 84.28125 50.015625 
Q 88.921875 44.046875 88.921875 33.015625 
L 88.921875 0 
L 79.890625 0 
L 79.890625 32.71875 
Q 79.890625 40.578125 77.09375 44.375 
Q 74.3125 48.1875 68.609375 48.1875 
Q 61.625 48.1875 57.5625 43.546875 
Q 53.515625 38.921875 53.515625 30.90625 
L 53.515625 0 
L 44.484375 0 
L 44.484375 32.71875 
Q 44.484375 40.625 41.703125 44.40625 
Q 38.921875 48.1875 33.109375 48.1875 
Q 26.21875 48.1875 22.15625 43.53125 
Q 18.109375 38.875 18.109375 30.90625 
L 18.109375 0 
L 9.078125 0 
L 9.078125 54.6875 
L 18.109375 54.6875 
L 18.109375 46.1875 
Q 21.1875 51.21875 25.484375 53.609375 
Q 29.78125 56 35.6875 56 
Q 41.65625 56 45.828125 52.96875 
Q 50 49.953125 52 44.1875 
z
" id="DejaVuSans-109"/>
     </defs>
     <g transform="translate(256.291817 502.382312)scale(0.12 -0.12)">
      <use xlink:href="#DejaVuSans-65"/>
      <use x="68.408203" xlink:href="#DejaVuSans-108"/>
      <use x="96.191406" xlink:href="#DejaVuSans-108"/>
      <use x="123.974609" xlink:href="#DejaVuSans-101"/>
      <use x="185.498047" xlink:href="#DejaVuSans-109"/>
      <use x="282.910156" xlink:href="#DejaVuSans-97"/>
      <use x="344.189453" xlink:href="#DejaVuSans-103"/>
      <use x="407.666016" xlink:href="#DejaVuSans-110"/>
      <use x="471.044922" xlink:href="#DejaVuSans-101"/>
     </g>
    </g>
   </g>
   <g id="text_8">
    <g clip-path="url(#p7cc480ceaf)">
     <!-- Chine -->
     <defs>
      <path d="M 64.40625 67.28125 
L 64.40625 56.890625 
Q 59.421875 61.53125 53.78125 63.8125 
Q 48.140625 66.109375 41.796875 66.109375 
Q 29.296875 66.109375 22.65625 58.46875 
Q 16.015625 50.828125 16.015625 36.375 
Q 16.015625 21.96875 22.65625 14.328125 
Q 29.296875 6.6875 41.796875 6.6875 
Q 48.140625 6.6875 53.78125 8.984375 
Q 59.421875 11.28125 64.40625 15.921875 
L 64.40625 5.609375 
Q 59.234375 2.09375 53.4375 0.328125 
Q 47.65625 -1.421875 41.21875 -1.421875 
Q 24.65625 -1.421875 15.125 8.703125 
Q 5.609375 18.84375 5.609375 36.375 
Q 5.609375 53.953125 15.125 64.078125 
Q 24.65625 74.21875 41.21875 74.21875 
Q 47.75 74.21875 53.53125 72.484375 
Q 59.328125 70.75 64.40625 67.28125 
z
" id="DejaVuSans-67"/>
      <path d="M 54.890625 33.015625 
L 54.890625 0 
L 45.90625 0 
L 45.90625 32.71875 
Q 45.90625 40.484375 42.875 44.328125 
Q 39.84375 48.1875 33.796875 48.1875 
Q 26.515625 48.1875 22.3125 43.546875 
Q 18.109375 38.921875 18.109375 30.90625 
L 18.109375 0 
L 9.078125 0 
L 9.078125 75.984375 
L 18.109375 75.984375 
L 18.109375 46.1875 
Q 21.34375 51.125 25.703125 53.5625 
Q 30.078125 56 35.796875 56 
Q 45.21875 56 50.046875 50.171875 
Q 54.890625 44.34375 54.890625 33.015625 
z
" id="DejaVuSans-104"/>
     </defs>
     <g transform="translate(135.063195 180.405609)scale(0.12 -0.12)">
      <use xlink:href="#DejaVuSans-67"/>
      <use x="69.824219" xlink:href="#DejaVuSans-104"/>
      <use x="133.203125" xlink:href="#DejaVuSans-105"/>
      <use x="160.986328" xlink:href="#DejaVuSans-110"/>
      <use x="224.365234" xlink:href="#DejaVuSans-101"/>
     </g>
    </g>
   </g>
   <g id="text_9">
    <g clip-path="url(#p7cc480ceaf)">
     <!-- Normandie -->
     <defs>
      <path d="M 45.40625 46.390625 
L 45.40625 75.984375 
L 54.390625 75.984375 
L 54.390625 0 
L 45.40625 0 
L 45.40625 8.203125 
Q 42.578125 3.328125 38.25 0.953125 
Q 33.9375 -1.421875 27.875 -1.421875 
Q 17.96875 -1.421875 11.734375 6.484375 
Q 5.515625 14.40625 5.515625 27.296875 
Q 5.515625 40.1875 11.734375 48.09375 
Q 17.96875 56 27.875 56 
Q 33.9375 56 38.25 53.625 
Q 42.578125 51.265625 45.40625 46.390625 
z
M 14.796875 27.296875 
Q 14.796875 17.390625 18.875 11.75 
Q 22.953125 6.109375 30.078125 6.109375 
Q 37.203125 6.109375 41.296875 11.75 
Q 45.40625 17.390625 45.40625 27.296875 
Q 45.40625 37.203125 41.296875 42.84375 
Q 37.203125 48.484375 30.078125 48.484375 
Q 22.953125 48.484375 18.875 42.84375 
Q 14.796875 37.203125 14.796875 27.296875 
z
" id="DejaVuSans-100"/>
     </defs>
     <g transform="translate(197.471815 432.30657)scale(0.12 -0.12)">
      <use xlink:href="#DejaVuSans-78"/>
      <use x="74.804688" xlink:href="#DejaVuSans-111"/>
      <use x="135.986328" xlink:href="#DejaVuSans-114"/>
      <use x="177.083984" xlink:href="#DejaVuSans-109"/>
      <use x="274.496094" xlink:href="#DejaVuSans-97"/>
      <use x="335.775391" xlink:href="#DejaVuSans-110"/>
      <use x="399.154297" xlink:href="#DejaVuSans-100"/>
      <use x="462.630859" xlink:href="#DejaVuSans-105"/>
      <use x="490.414062" xlink:href="#DejaVuSans-101"/>
     </g>
    </g>
   </g>
   <g id="text_10">
    <g clip-path="url(#p7cc480ceaf)">
     <!-- Belgique -->
     <defs>
      <path d="M 14.796875 27.296875 
Q 14.796875 17.390625 18.875 11.75 
Q 22.953125 6.109375 30.078125 6.109375 
Q 37.203125 6.109375 41.296875 11.75 
Q 45.40625 17.390625 45.40625 27.296875 
Q 45.40625 37.203125 41.296875 42.84375 
Q 37.203125 48.484375 30.078125 48.484375 
Q 22.953125 48.484375 18.875 42.84375 
Q 14.796875 37.203125 14.796875 27.296875 
z
M 45.40625 8.203125 
Q 42.578125 3.328125 38.25 0.953125 
Q 33.9375 -1.421875 27.875 -1.421875 
Q 17.96875 -1.421875 11.734375 6.484375 
Q 5.515625 14.40625 5.515625 27.296875 
Q 5.515625 40.1875 11.734375 48.09375 
Q 17.96875 56 27.875 56 
Q 33.9375 56 38.25 53.625 
Q 42.578125 51.265625 45.40625 46.390625 
L 45.40625 54.6875 
L 54.390625 54.6875 
L 54.390625 -20.796875 
L 45.40625 -20.796875 
z
" id="DejaVuSans-113"/>
     </defs>
     <g transform="translate(725.638042 388.919872)scale(0.12 -0.12)">
      <use xlink:href="#DejaVuSans-66"/>
      <use x="68.603516" xlink:href="#DejaVuSans-101"/>
      <use x="130.126953" xlink:href="#DejaVuSans-108"/>
      <use x="157.910156" xlink:href="#DejaVuSans-103"/>
      <use x="221.386719" xlink:href="#DejaVuSans-105"/>
      <use x="249.169922" xlink:href="#DejaVuSans-113"/>
      <use x="312.646484" xlink:href="#DejaVuSans-117"/>
      <use x="376.025391" xlink:href="#DejaVuSans-101"/>
     </g>
    </g>
   </g>
   <g id="text_11">
    <g clip-path="url(#p7cc480ceaf)">
     <!-- Maroc -->
     <defs>
      <path d="M 9.8125 72.90625 
L 24.515625 72.90625 
L 43.109375 23.296875 
L 61.8125 72.90625 
L 76.515625 72.90625 
L 76.515625 0 
L 66.890625 0 
L 66.890625 64.015625 
L 48.09375 14.015625 
L 38.1875 14.015625 
L 19.390625 64.015625 
L 19.390625 0 
L 9.8125 0 
z
" id="DejaVuSans-77"/>
     </defs>
     <g transform="translate(717.734372 298.2091)scale(0.12 -0.12)">
      <use xlink:href="#DejaVuSans-77"/>
      <use x="86.279297" xlink:href="#DejaVuSans-97"/>
      <use x="147.558594" xlink:href="#DejaVuSans-114"/>
      <use x="188.640625" xlink:href="#DejaVuSans-111"/>
      <use x="249.822266" xlink:href="#DejaVuSans-99"/>
     </g>
    </g>
   </g>
   <g id="text_12">
    <g clip-path="url(#p7cc480ceaf)">
     <!-- france -->
     <defs>
      <path d="M 37.109375 75.984375 
L 37.109375 68.5 
L 28.515625 68.5 
Q 23.6875 68.5 21.796875 66.546875 
Q 19.921875 64.59375 19.921875 59.515625 
L 19.921875 54.6875 
L 34.71875 54.6875 
L 34.71875 47.703125 
L 19.921875 47.703125 
L 19.921875 0 
L 10.890625 0 
L 10.890625 47.703125 
L 2.296875 47.703125 
L 2.296875 54.6875 
L 10.890625 54.6875 
L 10.890625 58.5 
Q 10.890625 67.625 15.140625 71.796875 
Q 19.390625 75.984375 28.609375 75.984375 
z
" id="DejaVuSans-102"/>
     </defs>
     <g transform="translate(87.223833 276.353221)scale(0.12 -0.12)">
      <use xlink:href="#DejaVuSans-102"/>
      <use x="35.205078" xlink:href="#DejaVuSans-114"/>
      <use x="76.318359" xlink:href="#DejaVuSans-97"/>
      <use x="137.597656" xlink:href="#DejaVuSans-110"/>
      <use x="200.976562" xlink:href="#DejaVuSans-99"/>
      <use x="255.957031" xlink:href="#DejaVuSans-101"/>
     </g>
    </g>
   </g>
   <g id="text_13">
    <g clip-path="url(#p7cc480ceaf)">
     <!-- Turquie -->
     <defs>
      <path d="M -0.296875 72.90625 
L 61.375 72.90625 
L 61.375 64.59375 
L 35.5 64.59375 
L 35.5 0 
L 25.59375 0 
L 25.59375 64.59375 
L -0.296875 64.59375 
z
" id="DejaVuSans-84"/>
     </defs>
     <g transform="translate(690.037334 211.285552)scale(0.12 -0.12)">
      <use xlink:href="#DejaVuSans-84"/>
      <use x="60.849609" xlink:href="#DejaVuSans-117"/>
      <use x="124.228516" xlink:href="#DejaVuSans-114"/>
      <use x="165.326172" xlink:href="#DejaVuSans-113"/>
      <use x="228.802734" xlink:href="#DejaVuSans-117"/>
      <use x="292.181641" xlink:href="#DejaVuSans-105"/>
      <use x="319.964844" xlink:href="#DejaVuSans-101"/>
     </g>
    </g>
   </g>
   <g id="text_14">
    <g clip-path="url(#p7cc480ceaf)">
     <!-- Thaïlande -->
     <defs>
      <path d="M 9.421875 54.6875 
L 18.40625 54.6875 
L 18.40625 0 
L 9.421875 0 
z
M 13.921875 56 
z
M 18.5 75.78125 
L 28.421875 75.78125 
L 28.421875 65.921875 
L 18.5 65.921875 
z
M -0.59375 75.78125 
L 9.328125 75.78125 
L 9.328125 65.921875 
L -0.59375 65.921875 
z
" id="DejaVuSans-239"/>
     </defs>
     <g transform="translate(362.959017 82.840295)scale(0.12 -0.12)">
      <use xlink:href="#DejaVuSans-84"/>
      <use x="61.083984" xlink:href="#DejaVuSans-104"/>
      <use x="124.462891" xlink:href="#DejaVuSans-97"/>
      <use x="185.742188" xlink:href="#DejaVuSans-239"/>
      <use x="213.525391" xlink:href="#DejaVuSans-108"/>
      <use x="241.308594" xlink:href="#DejaVuSans-97"/>
      <use x="302.587891" xlink:href="#DejaVuSans-110"/>
      <use x="365.966797" xlink:href="#DejaVuSans-100"/>
      <use x="429.443359" xlink:href="#DejaVuSans-101"/>
     </g>
    </g>
   </g>
   <g id="text_15">
    <g clip-path="url(#p7cc480ceaf)">
     <!-- Pays-Bas -->
     <defs>
      <path d="M 32.171875 -5.078125 
Q 28.375 -14.84375 24.75 -17.8125 
Q 21.140625 -20.796875 15.09375 -20.796875 
L 7.90625 -20.796875 
L 7.90625 -13.28125 
L 13.1875 -13.28125 
Q 16.890625 -13.28125 18.9375 -11.515625 
Q 21 -9.765625 23.484375 -3.21875 
L 25.09375 0.875 
L 2.984375 54.6875 
L 12.5 54.6875 
L 29.59375 11.921875 
L 46.6875 54.6875 
L 56.203125 54.6875 
z
" id="DejaVuSans-121"/>
      <path d="M 4.890625 31.390625 
L 31.203125 31.390625 
L 31.203125 23.390625 
L 4.890625 23.390625 
z
" id="DejaVuSans-45"/>
     </defs>
     <g transform="translate(569.87156 517.502349)scale(0.12 -0.12)">
      <use xlink:href="#DejaVuSans-80"/>
      <use x="60.240234" xlink:href="#DejaVuSans-97"/>
      <use x="121.519531" xlink:href="#DejaVuSans-121"/>
      <use x="180.699219" xlink:href="#DejaVuSans-115"/>
      <use x="232.798828" xlink:href="#DejaVuSans-45"/>
      <use x="268.835938" xlink:href="#DejaVuSans-66"/>
      <use x="337.439453" xlink:href="#DejaVuSans-97"/>
      <use x="398.71875" xlink:href="#DejaVuSans-115"/>
     </g>
    </g>
   </g>
   <g id="text_16">
    <!-- Origin of products consummed in France -->
    <defs>
     <path d="M 39.40625 66.21875 
Q 28.65625 66.21875 22.328125 58.203125 
Q 16.015625 50.203125 16.015625 36.375 
Q 16.015625 22.609375 22.328125 14.59375 
Q 28.65625 6.59375 39.40625 6.59375 
Q 50.140625 6.59375 56.421875 14.59375 
Q 62.703125 22.609375 62.703125 36.375 
Q 62.703125 50.203125 56.421875 58.203125 
Q 50.140625 66.21875 39.40625 66.21875 
z
M 39.40625 74.21875 
Q 54.734375 74.21875 63.90625 63.9375 
Q 73.09375 53.65625 73.09375 36.375 
Q 73.09375 19.140625 63.90625 8.859375 
Q 54.734375 -1.421875 39.40625 -1.421875 
Q 24.03125 -1.421875 14.8125 8.828125 
Q 5.609375 19.09375 5.609375 36.375 
Q 5.609375 53.65625 14.8125 63.9375 
Q 24.03125 74.21875 39.40625 74.21875 
z
" id="DejaVuSans-79"/>
     <path id="DejaVuSans-32"/>
    </defs>
    <g transform="translate(306.555313 16.318125)scale(0.12 -0.12)">
     <use xlink:href="#DejaVuSans-79"/>
     <use x="78.710938" xlink:href="#DejaVuSans-114"/>
     <use x="119.824219" xlink:href="#DejaVuSans-105"/>
     <use x="147.607422" xlink:href="#DejaVuSans-103"/>
     <use x="211.083984" xlink:href="#DejaVuSans-105"/>
     <use x="238.867188" xlink:href="#DejaVuSans-110"/>
     <use x="302.246094" xlink:href="#DejaVuSans-32"/>
     <use x="334.033203" xlink:href="#DejaVuSans-111"/>
     <use x="395.214844" xlink:href="#DejaVuSans-102"/>
     <use x="430.419922" xlink:href="#DejaVuSans-32"/>
     <use x="462.207031" xlink:href="#DejaVuSans-112"/>
     <use x="525.683594" xlink:href="#DejaVuSans-114"/>
     <use x="566.765625" xlink:href="#DejaVuSans-111"/>
     <use x="627.947266" xlink:href="#DejaVuSans-100"/>
     <use x="691.423828" xlink:href="#DejaVuSans-117"/>
     <use x="754.802734" xlink:href="#DejaVuSans-99"/>
     <use x="809.783203" xlink:href="#DejaVuSans-116"/>
     <use x="848.992188" xlink:href="#DejaVuSans-115"/>
     <use x="901.091797" xlink:href="#DejaVuSans-32"/>
     <use x="932.878906" xlink:href="#DejaVuSans-99"/>
     <use x="987.859375" xlink:href="#DejaVuSans-111"/>
     <use x="1049.041016" xlink:href="#DejaVuSans-110"/>
     <use x="1112.419922" xlink:href="#DejaVuSans-115"/>
     <use x="1164.519531" xlink:href="#DejaVuSans-117"/>
     <use x="1227.898438" xlink:href="#DejaVuSans-109"/>
     <use x="1325.310547" xlink:href="#DejaVuSans-109"/>
     <use x="1422.722656" xlink:href="#DejaVuSans-101"/>
     <use x="1484.246094" xlink:href="#DejaVuSans-100"/>
     <use x="1547.722656" xlink:href="#DejaVuSans-32"/>
     <use x="1579.509766" xlink:href="#DejaVuSans-105"/>
     <use x="1607.292969" xlink:href="#DejaVuSans-110"/>
     <use x="1670.671875" xlink:href="#DejaVuSans-32"/>
     <use x="1702.458984" xlink:href="#DejaVuSans-70"/>
     <use x="1759.869141" xlink:href="#DejaVuSans-114"/>
     <use x="1800.982422" xlink:href="#DejaVuSans-97"/>
     <use x="1862.261719" xlink:href="#DejaVuSans-110"/>
     <use x="1925.640625" xlink:href="#DejaVuSans-99"/>
     <use x="1980.621094" xlink:href="#DejaVuSans-101"/>
    </g>
   </g>
  </g>
 </g>
 <defs>
  <clipPath id="p7cc480ceaf">
   <rect height="543.6" width="781.2" x="38.482813" y="22.318125"/>
  </clipPath>
 </defs>
</svg>
