<?xml version="1.0" encoding="utf-8" standalone="no"?>
<!DOCTYPE svg PUBLIC "-//W3C//DTD SVG 1.1//EN"
  "http://www.w3.org/Graphics/SVG/1.1/DTD/svg11.dtd">
<!-- Created with matplotlib (http://matplotlib.org/) -->
<svg height="712.194375pt" version="1.1" viewBox="0 0 973.276562 712.194375" width="973.276562pt" xmlns="http://www.w3.org/2000/svg" xmlns:xlink="http://www.w3.org/1999/xlink">
 <defs>
  <style type="text/css">
*{stroke-linecap:butt;stroke-linejoin:round;}
  </style>
 </defs>
 <g id="figure_1">
  <g id="patch_1">
   <path d="M -0 712.194375 
L 973.276563 712.194375 
L 973.276563 0 
L -0 0 
z
" style="fill:#ffffff;"/>
  </g>
  <g id="axes_1">
   <g id="patch_2">
    <path d="M 181.376563 674.638125 
L 962.576563 674.638125 
L 962.576563 22.318125 
L 181.376563 22.318125 
z
" style="fill:#ffffff;"/>
   </g>
   <g id="patch_3">
    <path clip-path="url(#p2dec8fb84f)" d="M 181.376563 668.114925 
L 925.376563 668.114925 
L 925.376563 655.068525 
L 181.376563 655.068525 
z
" style="fill:#0000ff;"/>
   </g>
   <g id="patch_4">
    <path clip-path="url(#p2dec8fb84f)" d="M 181.376563 642.022125 
L 637.218585 642.022125 
L 637.218585 628.975725 
L 181.376563 628.975725 
z
" style="fill:#0000ff;"/>
   </g>
   <g id="patch_5">
    <path clip-path="url(#p2dec8fb84f)" d="M 181.376563 615.929325 
L 481.288095 615.929325 
L 481.288095 602.882925 
L 181.376563 602.882925 
z
" style="fill:#0000ff;"/>
   </g>
   <g id="patch_6">
    <path clip-path="url(#p2dec8fb84f)" d="M 181.376563 589.836525 
L 405.869453 589.836525 
L 405.869453 576.790125 
L 181.376563 576.790125 
z
" style="fill:#0000ff;"/>
   </g>
   <g id="patch_7">
    <path clip-path="url(#p2dec8fb84f)" d="M 181.376563 563.743725 
L 405.477668 563.743725 
L 405.477668 550.697325 
L 181.376563 550.697325 
z
" style="fill:#0000ff;"/>
   </g>
   <g id="patch_8">
    <path clip-path="url(#p2dec8fb84f)" d="M 181.376563 537.650925 
L 345.53454 537.650925 
L 345.53454 524.604525 
L 181.376563 524.604525 
z
" style="fill:#0000ff;"/>
   </g>
   <g id="patch_9">
    <path clip-path="url(#p2dec8fb84f)" d="M 181.376563 511.558125 
L 325.161713 511.558125 
L 325.161713 498.511725 
L 181.376563 498.511725 
z
" style="fill:#0000ff;"/>
   </g>
   <g id="patch_10">
    <path clip-path="url(#p2dec8fb84f)" d="M 181.376563 485.465325 
L 322.811002 485.465325 
L 322.811002 472.418925 
L 181.376563 472.418925 
z
" style="fill:#0000ff;"/>
   </g>
   <g id="patch_11">
    <path clip-path="url(#p2dec8fb84f)" d="M 181.376563 459.372525 
L 292.643545 459.372525 
L 292.643545 446.326125 
L 181.376563 446.326125 
z
" style="fill:#0000ff;"/>
   </g>
   <g id="patch_12">
    <path clip-path="url(#p2dec8fb84f)" d="M 181.376563 433.279725 
L 290.292834 433.279725 
L 290.292834 420.233325 
L 181.376563 420.233325 
z
" style="fill:#0000ff;"/>
   </g>
   <g id="patch_13">
    <path clip-path="url(#p2dec8fb84f)" d="M 181.376563 407.186925 
L 289.901049 407.186925 
L 289.901049 394.140525 
L 181.376563 394.140525 
z
" style="fill:#0000ff;"/>
   </g>
   <g id="patch_14">
    <path clip-path="url(#p2dec8fb84f)" d="M 181.376563 381.094125 
L 273.25018 381.094125 
L 273.25018 368.047725 
L 181.376563 368.047725 
z
" style="fill:#0000ff;"/>
   </g>
   <g id="patch_15">
    <path clip-path="url(#p2dec8fb84f)" d="M 181.376563 355.001325 
L 270.703577 355.001325 
L 270.703577 341.954925 
L 181.376563 341.954925 
z
" style="fill:#0000ff;"/>
   </g>
   <g id="patch_16">
    <path clip-path="url(#p2dec8fb84f)" d="M 181.376563 328.908525 
L 267.961081 328.908525 
L 267.961081 315.862125 
L 181.376563 315.862125 
z
" style="fill:#0000ff;"/>
   </g>
   <g id="patch_17">
    <path clip-path="url(#p2dec8fb84f)" d="M 181.376563 302.815725 
L 266.198047 302.815725 
L 266.198047 289.769325 
L 181.376563 289.769325 
z
" style="fill:#0000ff;"/>
   </g>
   <g id="patch_18">
    <path clip-path="url(#p2dec8fb84f)" d="M 181.376563 276.722925 
L 263.455551 276.722925 
L 263.455551 263.676525 
L 181.376563 263.676525 
z
" style="fill:#0000ff;"/>
   </g>
   <g id="patch_19">
    <path clip-path="url(#p2dec8fb84f)" d="M 181.376563 250.630125 
L 255.228063 250.630125 
L 255.228063 237.583725 
L 181.376563 237.583725 
z
" style="fill:#0000ff;"/>
   </g>
   <g id="patch_20">
    <path clip-path="url(#p2dec8fb84f)" d="M 181.376563 224.537325 
L 252.877352 224.537325 
L 252.877352 211.490925 
L 181.376563 211.490925 
z
" style="fill:#0000ff;"/>
   </g>
   <g id="patch_21">
    <path clip-path="url(#p2dec8fb84f)" d="M 181.376563 198.444525 
L 249.547179 198.444525 
L 249.547179 185.398125 
L 181.376563 185.398125 
z
" style="fill:#0000ff;"/>
   </g>
   <g id="patch_22">
    <path clip-path="url(#p2dec8fb84f)" d="M 181.376563 172.351725 
L 248.763608 172.351725 
L 248.763608 159.305325 
L 181.376563 159.305325 
z
" style="fill:#0000ff;"/>
   </g>
   <g id="patch_23">
    <path clip-path="url(#p2dec8fb84f)" d="M 181.376563 146.258925 
L 248.567716 146.258925 
L 248.567716 133.212525 
L 181.376563 133.212525 
z
" style="fill:#0000ff;"/>
   </g>
   <g id="patch_24">
    <path clip-path="url(#p2dec8fb84f)" d="M 181.376563 120.166125 
L 247.196468 120.166125 
L 247.196468 107.119725 
L 181.376563 107.119725 
z
" style="fill:#0000ff;"/>
   </g>
   <g id="patch_25">
    <path clip-path="url(#p2dec8fb84f)" d="M 181.376563 94.073325 
L 246.217005 94.073325 
L 246.217005 81.026925 
L 181.376563 81.026925 
z
" style="fill:#0000ff;"/>
   </g>
   <g id="patch_26">
    <path clip-path="url(#p2dec8fb84f)" d="M 181.376563 67.980525 
L 237.597732 67.980525 
L 237.597732 54.934125 
L 181.376563 54.934125 
z
" style="fill:#0000ff;"/>
   </g>
   <g id="patch_27">
    <path clip-path="url(#p2dec8fb84f)" d="M 181.376563 41.887725 
L 235.834698 41.887725 
L 235.834698 28.841325 
L 181.376563 28.841325 
z
" style="fill:#0000ff;"/>
   </g>
   <g id="matplotlib.axis_1">
    <g id="xtick_1">
     <g id="line2d_1">
      <defs>
       <path d="M 0 0 
L 0 3.5 
" id="m076dd8d889" style="stroke:#000000;stroke-width:0.8;"/>
      </defs>
      <g>
       <use style="stroke:#000000;stroke-width:0.8;" x="181.376563" xlink:href="#m076dd8d889" y="674.638125"/>
      </g>
     </g>
     <g id="text_1">
      <!-- 0 -->
      <defs>
       <path d="M 31.78125 66.40625 
Q 24.171875 66.40625 20.328125 58.90625 
Q 16.5 51.421875 16.5 36.375 
Q 16.5 21.390625 20.328125 13.890625 
Q 24.171875 6.390625 31.78125 6.390625 
Q 39.453125 6.390625 43.28125 13.890625 
Q 47.125 21.390625 47.125 36.375 
Q 47.125 51.421875 43.28125 58.90625 
Q 39.453125 66.40625 31.78125 66.40625 
z
M 31.78125 74.21875 
Q 44.046875 74.21875 50.515625 64.515625 
Q 56.984375 54.828125 56.984375 36.375 
Q 56.984375 17.96875 50.515625 8.265625 
Q 44.046875 -1.421875 31.78125 -1.421875 
Q 19.53125 -1.421875 13.0625 8.265625 
Q 6.59375 17.96875 6.59375 36.375 
Q 6.59375 54.828125 13.0625 64.515625 
Q 19.53125 74.21875 31.78125 74.21875 
z
" id="DejaVuSans-30"/>
      </defs>
      <g transform="translate(178.195313 689.236562)scale(0.1 -0.1)">
       <use xlink:href="#DejaVuSans-30"/>
      </g>
     </g>
    </g>
    <g id="xtick_2">
     <g id="line2d_2">
      <g>
       <use style="stroke:#000000;stroke-width:0.8;" x="279.32285" xlink:href="#m076dd8d889" y="674.638125"/>
      </g>
     </g>
     <g id="text_2">
      <!-- 500 -->
      <defs>
       <path d="M 10.796875 72.90625 
L 49.515625 72.90625 
L 49.515625 64.59375 
L 19.828125 64.59375 
L 19.828125 46.734375 
Q 21.96875 47.46875 24.109375 47.828125 
Q 26.265625 48.1875 28.421875 48.1875 
Q 40.625 48.1875 47.75 41.5 
Q 54.890625 34.8125 54.890625 23.390625 
Q 54.890625 11.625 47.5625 5.09375 
Q 40.234375 -1.421875 26.90625 -1.421875 
Q 22.3125 -1.421875 17.546875 -0.640625 
Q 12.796875 0.140625 7.71875 1.703125 
L 7.71875 11.625 
Q 12.109375 9.234375 16.796875 8.0625 
Q 21.484375 6.890625 26.703125 6.890625 
Q 35.15625 6.890625 40.078125 11.328125 
Q 45.015625 15.765625 45.015625 23.390625 
Q 45.015625 31 40.078125 35.4375 
Q 35.15625 39.890625 26.703125 39.890625 
Q 22.75 39.890625 18.8125 39.015625 
Q 14.890625 38.140625 10.796875 36.28125 
z
" id="DejaVuSans-35"/>
      </defs>
      <g transform="translate(269.7791 689.236562)scale(0.1 -0.1)">
       <use xlink:href="#DejaVuSans-35"/>
       <use x="63.623047" xlink:href="#DejaVuSans-30"/>
       <use x="127.246094" xlink:href="#DejaVuSans-30"/>
      </g>
     </g>
    </g>
    <g id="xtick_3">
     <g id="line2d_3">
      <g>
       <use style="stroke:#000000;stroke-width:0.8;" x="377.269138" xlink:href="#m076dd8d889" y="674.638125"/>
      </g>
     </g>
     <g id="text_3">
      <!-- 1000 -->
      <defs>
       <path d="M 12.40625 8.296875 
L 28.515625 8.296875 
L 28.515625 63.921875 
L 10.984375 60.40625 
L 10.984375 69.390625 
L 28.421875 72.90625 
L 38.28125 72.90625 
L 38.28125 8.296875 
L 54.390625 8.296875 
L 54.390625 0 
L 12.40625 0 
z
" id="DejaVuSans-31"/>
      </defs>
      <g transform="translate(364.544138 689.236562)scale(0.1 -0.1)">
       <use xlink:href="#DejaVuSans-31"/>
       <use x="63.623047" xlink:href="#DejaVuSans-30"/>
       <use x="127.246094" xlink:href="#DejaVuSans-30"/>
       <use x="190.869141" xlink:href="#DejaVuSans-30"/>
      </g>
     </g>
    </g>
    <g id="xtick_4">
     <g id="line2d_4">
      <g>
       <use style="stroke:#000000;stroke-width:0.8;" x="475.215425" xlink:href="#m076dd8d889" y="674.638125"/>
      </g>
     </g>
     <g id="text_4">
      <!-- 1500 -->
      <g transform="translate(462.490425 689.236562)scale(0.1 -0.1)">
       <use xlink:href="#DejaVuSans-31"/>
       <use x="63.623047" xlink:href="#DejaVuSans-35"/>
       <use x="127.246094" xlink:href="#DejaVuSans-30"/>
       <use x="190.869141" xlink:href="#DejaVuSans-30"/>
      </g>
     </g>
    </g>
    <g id="xtick_5">
     <g id="line2d_5">
      <g>
       <use style="stroke:#000000;stroke-width:0.8;" x="573.161713" xlink:href="#m076dd8d889" y="674.638125"/>
      </g>
     </g>
     <g id="text_5">
      <!-- 2000 -->
      <defs>
       <path d="M 19.1875 8.296875 
L 53.609375 8.296875 
L 53.609375 0 
L 7.328125 0 
L 7.328125 8.296875 
Q 12.9375 14.109375 22.625 23.890625 
Q 32.328125 33.6875 34.8125 36.53125 
Q 39.546875 41.84375 41.421875 45.53125 
Q 43.3125 49.21875 43.3125 52.78125 
Q 43.3125 58.59375 39.234375 62.25 
Q 35.15625 65.921875 28.609375 65.921875 
Q 23.96875 65.921875 18.8125 64.3125 
Q 13.671875 62.703125 7.8125 59.421875 
L 7.8125 69.390625 
Q 13.765625 71.78125 18.9375 73 
Q 24.125 74.21875 28.421875 74.21875 
Q 39.75 74.21875 46.484375 68.546875 
Q 53.21875 62.890625 53.21875 53.421875 
Q 53.21875 48.921875 51.53125 44.890625 
Q 49.859375 40.875 45.40625 35.40625 
Q 44.1875 33.984375 37.640625 27.21875 
Q 31.109375 20.453125 19.1875 8.296875 
z
" id="DejaVuSans-32"/>
      </defs>
      <g transform="translate(560.436713 689.236562)scale(0.1 -0.1)">
       <use xlink:href="#DejaVuSans-32"/>
       <use x="63.623047" xlink:href="#DejaVuSans-30"/>
       <use x="127.246094" xlink:href="#DejaVuSans-30"/>
       <use x="190.869141" xlink:href="#DejaVuSans-30"/>
      </g>
     </g>
    </g>
    <g id="xtick_6">
     <g id="line2d_6">
      <g>
       <use style="stroke:#000000;stroke-width:0.8;" x="671.108" xlink:href="#m076dd8d889" y="674.638125"/>
      </g>
     </g>
     <g id="text_6">
      <!-- 2500 -->
      <g transform="translate(658.383 689.236562)scale(0.1 -0.1)">
       <use xlink:href="#DejaVuSans-32"/>
       <use x="63.623047" xlink:href="#DejaVuSans-35"/>
       <use x="127.246094" xlink:href="#DejaVuSans-30"/>
       <use x="190.869141" xlink:href="#DejaVuSans-30"/>
      </g>
     </g>
    </g>
    <g id="xtick_7">
     <g id="line2d_7">
      <g>
       <use style="stroke:#000000;stroke-width:0.8;" x="769.054288" xlink:href="#m076dd8d889" y="674.638125"/>
      </g>
     </g>
     <g id="text_7">
      <!-- 3000 -->
      <defs>
       <path d="M 40.578125 39.3125 
Q 47.65625 37.796875 51.625 33 
Q 55.609375 28.21875 55.609375 21.1875 
Q 55.609375 10.40625 48.1875 4.484375 
Q 40.765625 -1.421875 27.09375 -1.421875 
Q 22.515625 -1.421875 17.65625 -0.515625 
Q 12.796875 0.390625 7.625 2.203125 
L 7.625 11.71875 
Q 11.71875 9.328125 16.59375 8.109375 
Q 21.484375 6.890625 26.8125 6.890625 
Q 36.078125 6.890625 40.9375 10.546875 
Q 45.796875 14.203125 45.796875 21.1875 
Q 45.796875 27.640625 41.28125 31.265625 
Q 36.765625 34.90625 28.71875 34.90625 
L 20.21875 34.90625 
L 20.21875 43.015625 
L 29.109375 43.015625 
Q 36.375 43.015625 40.234375 45.921875 
Q 44.09375 48.828125 44.09375 54.296875 
Q 44.09375 59.90625 40.109375 62.90625 
Q 36.140625 65.921875 28.71875 65.921875 
Q 24.65625 65.921875 20.015625 65.03125 
Q 15.375 64.15625 9.8125 62.3125 
L 9.8125 71.09375 
Q 15.4375 72.65625 20.34375 73.4375 
Q 25.25 74.21875 29.59375 74.21875 
Q 40.828125 74.21875 47.359375 69.109375 
Q 53.90625 64.015625 53.90625 55.328125 
Q 53.90625 49.265625 50.4375 45.09375 
Q 46.96875 40.921875 40.578125 39.3125 
z
" id="DejaVuSans-33"/>
      </defs>
      <g transform="translate(756.329288 689.236562)scale(0.1 -0.1)">
       <use xlink:href="#DejaVuSans-33"/>
       <use x="63.623047" xlink:href="#DejaVuSans-30"/>
       <use x="127.246094" xlink:href="#DejaVuSans-30"/>
       <use x="190.869141" xlink:href="#DejaVuSans-30"/>
      </g>
     </g>
    </g>
    <g id="xtick_8">
     <g id="line2d_8">
      <g>
       <use style="stroke:#000000;stroke-width:0.8;" x="867.000575" xlink:href="#m076dd8d889" y="674.638125"/>
      </g>
     </g>
     <g id="text_8">
      <!-- 3500 -->
      <g transform="translate(854.275575 689.236562)scale(0.1 -0.1)">
       <use xlink:href="#DejaVuSans-33"/>
       <use x="63.623047" xlink:href="#DejaVuSans-35"/>
       <use x="127.246094" xlink:href="#DejaVuSans-30"/>
       <use x="190.869141" xlink:href="#DejaVuSans-30"/>
      </g>
     </g>
    </g>
    <g id="text_9">
     <!-- Amount -->
     <defs>
      <path d="M 34.1875 63.1875 
L 20.796875 26.90625 
L 47.609375 26.90625 
z
M 28.609375 72.90625 
L 39.796875 72.90625 
L 67.578125 0 
L 57.328125 0 
L 50.6875 18.703125 
L 17.828125 18.703125 
L 11.1875 0 
L 0.78125 0 
z
" id="DejaVuSans-41"/>
      <path d="M 52 44.1875 
Q 55.375 50.25 60.0625 53.125 
Q 64.75 56 71.09375 56 
Q 79.640625 56 84.28125 50.015625 
Q 88.921875 44.046875 88.921875 33.015625 
L 88.921875 0 
L 79.890625 0 
L 79.890625 32.71875 
Q 79.890625 40.578125 77.09375 44.375 
Q 74.3125 48.1875 68.609375 48.1875 
Q 61.625 48.1875 57.5625 43.546875 
Q 53.515625 38.921875 53.515625 30.90625 
L 53.515625 0 
L 44.484375 0 
L 44.484375 32.71875 
Q 44.484375 40.625 41.703125 44.40625 
Q 38.921875 48.1875 33.109375 48.1875 
Q 26.21875 48.1875 22.15625 43.53125 
Q 18.109375 38.875 18.109375 30.90625 
L 18.109375 0 
L 9.078125 0 
L 9.078125 54.6875 
L 18.109375 54.6875 
L 18.109375 46.1875 
Q 21.1875 51.21875 25.484375 53.609375 
Q 29.78125 56 35.6875 56 
Q 41.65625 56 45.828125 52.96875 
Q 50 49.953125 52 44.1875 
z
" id="DejaVuSans-6d"/>
      <path d="M 30.609375 48.390625 
Q 23.390625 48.390625 19.1875 42.75 
Q 14.984375 37.109375 14.984375 27.296875 
Q 14.984375 17.484375 19.15625 11.84375 
Q 23.34375 6.203125 30.609375 6.203125 
Q 37.796875 6.203125 41.984375 11.859375 
Q 46.1875 17.53125 46.1875 27.296875 
Q 46.1875 37.015625 41.984375 42.703125 
Q 37.796875 48.390625 30.609375 48.390625 
z
M 30.609375 56 
Q 42.328125 56 49.015625 48.375 
Q 55.71875 40.765625 55.71875 27.296875 
Q 55.71875 13.875 49.015625 6.21875 
Q 42.328125 -1.421875 30.609375 -1.421875 
Q 18.84375 -1.421875 12.171875 6.21875 
Q 5.515625 13.875 5.515625 27.296875 
Q 5.515625 40.765625 12.171875 48.375 
Q 18.84375 56 30.609375 56 
z
" id="DejaVuSans-6f"/>
      <path d="M 8.5 21.578125 
L 8.5 54.6875 
L 17.484375 54.6875 
L 17.484375 21.921875 
Q 17.484375 14.15625 20.5 10.265625 
Q 23.53125 6.390625 29.59375 6.390625 
Q 36.859375 6.390625 41.078125 11.03125 
Q 45.3125 15.671875 45.3125 23.6875 
L 45.3125 54.6875 
L 54.296875 54.6875 
L 54.296875 0 
L 45.3125 0 
L 45.3125 8.40625 
Q 42.046875 3.421875 37.71875 1 
Q 33.40625 -1.421875 27.6875 -1.421875 
Q 18.265625 -1.421875 13.375 4.4375 
Q 8.5 10.296875 8.5 21.578125 
z
M 31.109375 56 
z
" id="DejaVuSans-75"/>
      <path d="M 54.890625 33.015625 
L 54.890625 0 
L 45.90625 0 
L 45.90625 32.71875 
Q 45.90625 40.484375 42.875 44.328125 
Q 39.84375 48.1875 33.796875 48.1875 
Q 26.515625 48.1875 22.3125 43.546875 
Q 18.109375 38.921875 18.109375 30.90625 
L 18.109375 0 
L 9.078125 0 
L 9.078125 54.6875 
L 18.109375 54.6875 
L 18.109375 46.1875 
Q 21.34375 51.125 25.703125 53.5625 
Q 30.078125 56 35.796875 56 
Q 45.21875 56 50.046875 50.171875 
Q 54.890625 44.34375 54.890625 33.015625 
z
" id="DejaVuSans-6e"/>
      <path d="M 18.3125 70.21875 
L 18.3125 54.6875 
L 36.8125 54.6875 
L 36.8125 47.703125 
L 18.3125 47.703125 
L 18.3125 18.015625 
Q 18.3125 11.328125 20.140625 9.421875 
Q 21.96875 7.515625 27.59375 7.515625 
L 36.8125 7.515625 
L 36.8125 0 
L 27.59375 0 
Q 17.1875 0 13.234375 3.875 
Q 9.28125 7.765625 9.28125 18.015625 
L 9.28125 47.703125 
L 2.6875 47.703125 
L 2.6875 54.6875 
L 9.28125 54.6875 
L 9.28125 70.21875 
z
" id="DejaVuSans-74"/>
     </defs>
     <g transform="translate(552.328906 702.914687)scale(0.1 -0.1)">
      <use xlink:href="#DejaVuSans-41"/>
      <use x="68.408203" xlink:href="#DejaVuSans-6d"/>
      <use x="165.820312" xlink:href="#DejaVuSans-6f"/>
      <use x="227.001953" xlink:href="#DejaVuSans-75"/>
      <use x="290.380859" xlink:href="#DejaVuSans-6e"/>
      <use x="353.759766" xlink:href="#DejaVuSans-74"/>
     </g>
    </g>
   </g>
   <g id="matplotlib.axis_2">
    <g id="ytick_1">
     <g id="line2d_9">
      <defs>
       <path d="M 0 0 
L -3.5 0 
" id="m7b4ab07cc6" style="stroke:#000000;stroke-width:0.8;"/>
      </defs>
      <g>
       <use style="stroke:#000000;stroke-width:0.8;" x="181.376563" xlink:href="#m7b4ab07cc6" y="661.591725"/>
      </g>
     </g>
     <g id="text_10">
      <!-- Sugary snacks -->
      <defs>
       <path d="M 53.515625 70.515625 
L 53.515625 60.890625 
Q 47.90625 63.578125 42.921875 64.890625 
Q 37.9375 66.21875 33.296875 66.21875 
Q 25.25 66.21875 20.875 63.09375 
Q 16.5 59.96875 16.5 54.203125 
Q 16.5 49.359375 19.40625 46.890625 
Q 22.3125 44.4375 30.421875 42.921875 
L 36.375 41.703125 
Q 47.40625 39.59375 52.65625 34.296875 
Q 57.90625 29 57.90625 20.125 
Q 57.90625 9.515625 50.796875 4.046875 
Q 43.703125 -1.421875 29.984375 -1.421875 
Q 24.8125 -1.421875 18.96875 -0.25 
Q 13.140625 0.921875 6.890625 3.21875 
L 6.890625 13.375 
Q 12.890625 10.015625 18.65625 8.296875 
Q 24.421875 6.59375 29.984375 6.59375 
Q 38.421875 6.59375 43.015625 9.90625 
Q 47.609375 13.234375 47.609375 19.390625 
Q 47.609375 24.75 44.3125 27.78125 
Q 41.015625 30.8125 33.5 32.328125 
L 27.484375 33.5 
Q 16.453125 35.6875 11.515625 40.375 
Q 6.59375 45.0625 6.59375 53.421875 
Q 6.59375 63.09375 13.40625 68.65625 
Q 20.21875 74.21875 32.171875 74.21875 
Q 37.3125 74.21875 42.625 73.28125 
Q 47.953125 72.359375 53.515625 70.515625 
z
" id="DejaVuSans-53"/>
       <path d="M 45.40625 27.984375 
Q 45.40625 37.75 41.375 43.109375 
Q 37.359375 48.484375 30.078125 48.484375 
Q 22.859375 48.484375 18.828125 43.109375 
Q 14.796875 37.75 14.796875 27.984375 
Q 14.796875 18.265625 18.828125 12.890625 
Q 22.859375 7.515625 30.078125 7.515625 
Q 37.359375 7.515625 41.375 12.890625 
Q 45.40625 18.265625 45.40625 27.984375 
z
M 54.390625 6.78125 
Q 54.390625 -7.171875 48.1875 -13.984375 
Q 42 -20.796875 29.203125 -20.796875 
Q 24.46875 -20.796875 20.265625 -20.09375 
Q 16.0625 -19.390625 12.109375 -17.921875 
L 12.109375 -9.1875 
Q 16.0625 -11.328125 19.921875 -12.34375 
Q 23.78125 -13.375 27.78125 -13.375 
Q 36.625 -13.375 41.015625 -8.765625 
Q 45.40625 -4.15625 45.40625 5.171875 
L 45.40625 9.625 
Q 42.625 4.78125 38.28125 2.390625 
Q 33.9375 0 27.875 0 
Q 17.828125 0 11.671875 7.65625 
Q 5.515625 15.328125 5.515625 27.984375 
Q 5.515625 40.671875 11.671875 48.328125 
Q 17.828125 56 27.875 56 
Q 33.9375 56 38.28125 53.609375 
Q 42.625 51.21875 45.40625 46.390625 
L 45.40625 54.6875 
L 54.390625 54.6875 
z
" id="DejaVuSans-67"/>
       <path d="M 34.28125 27.484375 
Q 23.390625 27.484375 19.1875 25 
Q 14.984375 22.515625 14.984375 16.5 
Q 14.984375 11.71875 18.140625 8.90625 
Q 21.296875 6.109375 26.703125 6.109375 
Q 34.1875 6.109375 38.703125 11.40625 
Q 43.21875 16.703125 43.21875 25.484375 
L 43.21875 27.484375 
z
M 52.203125 31.203125 
L 52.203125 0 
L 43.21875 0 
L 43.21875 8.296875 
Q 40.140625 3.328125 35.546875 0.953125 
Q 30.953125 -1.421875 24.3125 -1.421875 
Q 15.921875 -1.421875 10.953125 3.296875 
Q 6 8.015625 6 15.921875 
Q 6 25.140625 12.171875 29.828125 
Q 18.359375 34.515625 30.609375 34.515625 
L 43.21875 34.515625 
L 43.21875 35.40625 
Q 43.21875 41.609375 39.140625 45 
Q 35.0625 48.390625 27.6875 48.390625 
Q 23 48.390625 18.546875 47.265625 
Q 14.109375 46.140625 10.015625 43.890625 
L 10.015625 52.203125 
Q 14.9375 54.109375 19.578125 55.046875 
Q 24.21875 56 28.609375 56 
Q 40.484375 56 46.34375 49.84375 
Q 52.203125 43.703125 52.203125 31.203125 
z
" id="DejaVuSans-61"/>
       <path d="M 41.109375 46.296875 
Q 39.59375 47.171875 37.8125 47.578125 
Q 36.03125 48 33.890625 48 
Q 26.265625 48 22.1875 43.046875 
Q 18.109375 38.09375 18.109375 28.8125 
L 18.109375 0 
L 9.078125 0 
L 9.078125 54.6875 
L 18.109375 54.6875 
L 18.109375 46.1875 
Q 20.953125 51.171875 25.484375 53.578125 
Q 30.03125 56 36.53125 56 
Q 37.453125 56 38.578125 55.875 
Q 39.703125 55.765625 41.0625 55.515625 
z
" id="DejaVuSans-72"/>
       <path d="M 32.171875 -5.078125 
Q 28.375 -14.84375 24.75 -17.8125 
Q 21.140625 -20.796875 15.09375 -20.796875 
L 7.90625 -20.796875 
L 7.90625 -13.28125 
L 13.1875 -13.28125 
Q 16.890625 -13.28125 18.9375 -11.515625 
Q 21 -9.765625 23.484375 -3.21875 
L 25.09375 0.875 
L 2.984375 54.6875 
L 12.5 54.6875 
L 29.59375 11.921875 
L 46.6875 54.6875 
L 56.203125 54.6875 
z
" id="DejaVuSans-79"/>
       <path id="DejaVuSans-20"/>
       <path d="M 44.28125 53.078125 
L 44.28125 44.578125 
Q 40.484375 46.53125 36.375 47.5 
Q 32.28125 48.484375 27.875 48.484375 
Q 21.1875 48.484375 17.84375 46.4375 
Q 14.5 44.390625 14.5 40.28125 
Q 14.5 37.15625 16.890625 35.375 
Q 19.28125 33.59375 26.515625 31.984375 
L 29.59375 31.296875 
Q 39.15625 29.25 43.1875 25.515625 
Q 47.21875 21.78125 47.21875 15.09375 
Q 47.21875 7.46875 41.1875 3.015625 
Q 35.15625 -1.421875 24.609375 -1.421875 
Q 20.21875 -1.421875 15.453125 -0.5625 
Q 10.6875 0.296875 5.421875 2 
L 5.421875 11.28125 
Q 10.40625 8.6875 15.234375 7.390625 
Q 20.0625 6.109375 24.8125 6.109375 
Q 31.15625 6.109375 34.5625 8.28125 
Q 37.984375 10.453125 37.984375 14.40625 
Q 37.984375 18.0625 35.515625 20.015625 
Q 33.0625 21.96875 24.703125 23.78125 
L 21.578125 24.515625 
Q 13.234375 26.265625 9.515625 29.90625 
Q 5.8125 33.546875 5.8125 39.890625 
Q 5.8125 47.609375 11.28125 51.796875 
Q 16.75 56 26.8125 56 
Q 31.78125 56 36.171875 55.265625 
Q 40.578125 54.546875 44.28125 53.078125 
z
" id="DejaVuSans-73"/>
       <path d="M 48.78125 52.59375 
L 48.78125 44.1875 
Q 44.96875 46.296875 41.140625 47.34375 
Q 37.3125 48.390625 33.40625 48.390625 
Q 24.65625 48.390625 19.8125 42.84375 
Q 14.984375 37.3125 14.984375 27.296875 
Q 14.984375 17.28125 19.8125 11.734375 
Q 24.65625 6.203125 33.40625 6.203125 
Q 37.3125 6.203125 41.140625 7.25 
Q 44.96875 8.296875 48.78125 10.40625 
L 48.78125 2.09375 
Q 45.015625 0.34375 40.984375 -0.53125 
Q 36.96875 -1.421875 32.421875 -1.421875 
Q 20.0625 -1.421875 12.78125 6.34375 
Q 5.515625 14.109375 5.515625 27.296875 
Q 5.515625 40.671875 12.859375 48.328125 
Q 20.21875 56 33.015625 56 
Q 37.15625 56 41.109375 55.140625 
Q 45.0625 54.296875 48.78125 52.59375 
z
" id="DejaVuSans-63"/>
       <path d="M 9.078125 75.984375 
L 18.109375 75.984375 
L 18.109375 31.109375 
L 44.921875 54.6875 
L 56.390625 54.6875 
L 27.390625 29.109375 
L 57.625 0 
L 45.90625 0 
L 18.109375 26.703125 
L 18.109375 0 
L 9.078125 0 
z
" id="DejaVuSans-6b"/>
      </defs>
      <g transform="translate(101.832813 665.390944)scale(0.1 -0.1)">
       <use xlink:href="#DejaVuSans-53"/>
       <use x="63.476562" xlink:href="#DejaVuSans-75"/>
       <use x="126.855469" xlink:href="#DejaVuSans-67"/>
       <use x="190.332031" xlink:href="#DejaVuSans-61"/>
       <use x="251.611328" xlink:href="#DejaVuSans-72"/>
       <use x="292.724609" xlink:href="#DejaVuSans-79"/>
       <use x="351.904297" xlink:href="#DejaVuSans-20"/>
       <use x="383.691406" xlink:href="#DejaVuSans-73"/>
       <use x="435.791016" xlink:href="#DejaVuSans-6e"/>
       <use x="499.169922" xlink:href="#DejaVuSans-61"/>
       <use x="560.449219" xlink:href="#DejaVuSans-63"/>
       <use x="615.429688" xlink:href="#DejaVuSans-6b"/>
       <use x="673.339844" xlink:href="#DejaVuSans-73"/>
      </g>
     </g>
    </g>
    <g id="ytick_2">
     <g id="line2d_10">
      <g>
       <use style="stroke:#000000;stroke-width:0.8;" x="181.376563" xlink:href="#m7b4ab07cc6" y="635.498925"/>
      </g>
     </g>
     <g id="text_11">
      <!-- Biscuits and cakes -->
      <defs>
       <path d="M 19.671875 34.8125 
L 19.671875 8.109375 
L 35.5 8.109375 
Q 43.453125 8.109375 47.28125 11.40625 
Q 51.125 14.703125 51.125 21.484375 
Q 51.125 28.328125 47.28125 31.5625 
Q 43.453125 34.8125 35.5 34.8125 
z
M 19.671875 64.796875 
L 19.671875 42.828125 
L 34.28125 42.828125 
Q 41.5 42.828125 45.03125 45.53125 
Q 48.578125 48.25 48.578125 53.8125 
Q 48.578125 59.328125 45.03125 62.0625 
Q 41.5 64.796875 34.28125 64.796875 
z
M 9.8125 72.90625 
L 35.015625 72.90625 
Q 46.296875 72.90625 52.390625 68.21875 
Q 58.5 63.53125 58.5 54.890625 
Q 58.5 48.1875 55.375 44.234375 
Q 52.25 40.28125 46.1875 39.3125 
Q 53.46875 37.75 57.5 32.78125 
Q 61.53125 27.828125 61.53125 20.40625 
Q 61.53125 10.640625 54.890625 5.3125 
Q 48.25 0 35.984375 0 
L 9.8125 0 
z
" id="DejaVuSans-42"/>
       <path d="M 9.421875 54.6875 
L 18.40625 54.6875 
L 18.40625 0 
L 9.421875 0 
z
M 9.421875 75.984375 
L 18.40625 75.984375 
L 18.40625 64.59375 
L 9.421875 64.59375 
z
" id="DejaVuSans-69"/>
       <path d="M 45.40625 46.390625 
L 45.40625 75.984375 
L 54.390625 75.984375 
L 54.390625 0 
L 45.40625 0 
L 45.40625 8.203125 
Q 42.578125 3.328125 38.25 0.953125 
Q 33.9375 -1.421875 27.875 -1.421875 
Q 17.96875 -1.421875 11.734375 6.484375 
Q 5.515625 14.40625 5.515625 27.296875 
Q 5.515625 40.1875 11.734375 48.09375 
Q 17.96875 56 27.875 56 
Q 33.9375 56 38.25 53.625 
Q 42.578125 51.265625 45.40625 46.390625 
z
M 14.796875 27.296875 
Q 14.796875 17.390625 18.875 11.75 
Q 22.953125 6.109375 30.078125 6.109375 
Q 37.203125 6.109375 41.296875 11.75 
Q 45.40625 17.390625 45.40625 27.296875 
Q 45.40625 37.203125 41.296875 42.84375 
Q 37.203125 48.484375 30.078125 48.484375 
Q 22.953125 48.484375 18.875 42.84375 
Q 14.796875 37.203125 14.796875 27.296875 
z
" id="DejaVuSans-64"/>
       <path d="M 56.203125 29.59375 
L 56.203125 25.203125 
L 14.890625 25.203125 
Q 15.484375 15.921875 20.484375 11.0625 
Q 25.484375 6.203125 34.421875 6.203125 
Q 39.59375 6.203125 44.453125 7.46875 
Q 49.3125 8.734375 54.109375 11.28125 
L 54.109375 2.78125 
Q 49.265625 0.734375 44.1875 -0.34375 
Q 39.109375 -1.421875 33.890625 -1.421875 
Q 20.796875 -1.421875 13.15625 6.1875 
Q 5.515625 13.8125 5.515625 26.8125 
Q 5.515625 40.234375 12.765625 48.109375 
Q 20.015625 56 32.328125 56 
Q 43.359375 56 49.78125 48.890625 
Q 56.203125 41.796875 56.203125 29.59375 
z
M 47.21875 32.234375 
Q 47.125 39.59375 43.09375 43.984375 
Q 39.0625 48.390625 32.421875 48.390625 
Q 24.90625 48.390625 20.390625 44.140625 
Q 15.875 39.890625 15.1875 32.171875 
z
" id="DejaVuSans-65"/>
      </defs>
      <g transform="translate(81.839063 639.298144)scale(0.1 -0.1)">
       <use xlink:href="#DejaVuSans-42"/>
       <use x="68.603516" xlink:href="#DejaVuSans-69"/>
       <use x="96.386719" xlink:href="#DejaVuSans-73"/>
       <use x="148.486328" xlink:href="#DejaVuSans-63"/>
       <use x="203.466797" xlink:href="#DejaVuSans-75"/>
       <use x="266.845703" xlink:href="#DejaVuSans-69"/>
       <use x="294.628906" xlink:href="#DejaVuSans-74"/>
       <use x="333.837891" xlink:href="#DejaVuSans-73"/>
       <use x="385.9375" xlink:href="#DejaVuSans-20"/>
       <use x="417.724609" xlink:href="#DejaVuSans-61"/>
       <use x="479.003906" xlink:href="#DejaVuSans-6e"/>
       <use x="542.382812" xlink:href="#DejaVuSans-64"/>
       <use x="605.859375" xlink:href="#DejaVuSans-20"/>
       <use x="637.646484" xlink:href="#DejaVuSans-63"/>
       <use x="692.626953" xlink:href="#DejaVuSans-61"/>
       <use x="753.90625" xlink:href="#DejaVuSans-6b"/>
       <use x="811.769531" xlink:href="#DejaVuSans-65"/>
       <use x="873.292969" xlink:href="#DejaVuSans-73"/>
      </g>
     </g>
    </g>
    <g id="ytick_3">
     <g id="line2d_11">
      <g>
       <use style="stroke:#000000;stroke-width:0.8;" x="181.376563" xlink:href="#m7b4ab07cc6" y="609.406125"/>
      </g>
     </g>
     <g id="text_12">
      <!-- Biscuits -->
      <g transform="translate(135.784375 613.205344)scale(0.1 -0.1)">
       <use xlink:href="#DejaVuSans-42"/>
       <use x="68.603516" xlink:href="#DejaVuSans-69"/>
       <use x="96.386719" xlink:href="#DejaVuSans-73"/>
       <use x="148.486328" xlink:href="#DejaVuSans-63"/>
       <use x="203.466797" xlink:href="#DejaVuSans-75"/>
       <use x="266.845703" xlink:href="#DejaVuSans-69"/>
       <use x="294.628906" xlink:href="#DejaVuSans-74"/>
       <use x="333.837891" xlink:href="#DejaVuSans-73"/>
      </g>
     </g>
    </g>
    <g id="ytick_4">
     <g id="line2d_12">
      <g>
       <use style="stroke:#000000;stroke-width:0.8;" x="181.376563" xlink:href="#m7b4ab07cc6" y="583.313325"/>
      </g>
     </g>
     <g id="text_13">
      <!-- Plant-based foods and beverages -->
      <defs>
       <path d="M 19.671875 64.796875 
L 19.671875 37.40625 
L 32.078125 37.40625 
Q 38.96875 37.40625 42.71875 40.96875 
Q 46.484375 44.53125 46.484375 51.125 
Q 46.484375 57.671875 42.71875 61.234375 
Q 38.96875 64.796875 32.078125 64.796875 
z
M 9.8125 72.90625 
L 32.078125 72.90625 
Q 44.34375 72.90625 50.609375 67.359375 
Q 56.890625 61.8125 56.890625 51.125 
Q 56.890625 40.328125 50.609375 34.8125 
Q 44.34375 29.296875 32.078125 29.296875 
L 19.671875 29.296875 
L 19.671875 0 
L 9.8125 0 
z
" id="DejaVuSans-50"/>
       <path d="M 9.421875 75.984375 
L 18.40625 75.984375 
L 18.40625 0 
L 9.421875 0 
z
" id="DejaVuSans-6c"/>
       <path d="M 4.890625 31.390625 
L 31.203125 31.390625 
L 31.203125 23.390625 
L 4.890625 23.390625 
z
" id="DejaVuSans-2d"/>
       <path d="M 48.6875 27.296875 
Q 48.6875 37.203125 44.609375 42.84375 
Q 40.53125 48.484375 33.40625 48.484375 
Q 26.265625 48.484375 22.1875 42.84375 
Q 18.109375 37.203125 18.109375 27.296875 
Q 18.109375 17.390625 22.1875 11.75 
Q 26.265625 6.109375 33.40625 6.109375 
Q 40.53125 6.109375 44.609375 11.75 
Q 48.6875 17.390625 48.6875 27.296875 
z
M 18.109375 46.390625 
Q 20.953125 51.265625 25.265625 53.625 
Q 29.59375 56 35.59375 56 
Q 45.5625 56 51.78125 48.09375 
Q 58.015625 40.1875 58.015625 27.296875 
Q 58.015625 14.40625 51.78125 6.484375 
Q 45.5625 -1.421875 35.59375 -1.421875 
Q 29.59375 -1.421875 25.265625 0.953125 
Q 20.953125 3.328125 18.109375 8.203125 
L 18.109375 0 
L 9.078125 0 
L 9.078125 75.984375 
L 18.109375 75.984375 
z
" id="DejaVuSans-62"/>
       <path d="M 37.109375 75.984375 
L 37.109375 68.5 
L 28.515625 68.5 
Q 23.6875 68.5 21.796875 66.546875 
Q 19.921875 64.59375 19.921875 59.515625 
L 19.921875 54.6875 
L 34.71875 54.6875 
L 34.71875 47.703125 
L 19.921875 47.703125 
L 19.921875 0 
L 10.890625 0 
L 10.890625 47.703125 
L 2.296875 47.703125 
L 2.296875 54.6875 
L 10.890625 54.6875 
L 10.890625 58.5 
Q 10.890625 67.625 15.140625 71.796875 
Q 19.390625 75.984375 28.609375 75.984375 
z
" id="DejaVuSans-66"/>
       <path d="M 2.984375 54.6875 
L 12.5 54.6875 
L 29.59375 8.796875 
L 46.6875 54.6875 
L 56.203125 54.6875 
L 35.6875 0 
L 23.484375 0 
z
" id="DejaVuSans-76"/>
      </defs>
      <g transform="translate(7.2 587.112544)scale(0.1 -0.1)">
       <use xlink:href="#DejaVuSans-50"/>
       <use x="60.302734" xlink:href="#DejaVuSans-6c"/>
       <use x="88.085938" xlink:href="#DejaVuSans-61"/>
       <use x="149.365234" xlink:href="#DejaVuSans-6e"/>
       <use x="212.744141" xlink:href="#DejaVuSans-74"/>
       <use x="251.953125" xlink:href="#DejaVuSans-2d"/>
       <use x="288.037109" xlink:href="#DejaVuSans-62"/>
       <use x="351.513672" xlink:href="#DejaVuSans-61"/>
       <use x="412.792969" xlink:href="#DejaVuSans-73"/>
       <use x="464.892578" xlink:href="#DejaVuSans-65"/>
       <use x="526.416016" xlink:href="#DejaVuSans-64"/>
       <use x="589.892578" xlink:href="#DejaVuSans-20"/>
       <use x="621.679688" xlink:href="#DejaVuSans-66"/>
       <use x="656.884766" xlink:href="#DejaVuSans-6f"/>
       <use x="718.066406" xlink:href="#DejaVuSans-6f"/>
       <use x="779.248047" xlink:href="#DejaVuSans-64"/>
       <use x="842.724609" xlink:href="#DejaVuSans-73"/>
       <use x="894.824219" xlink:href="#DejaVuSans-20"/>
       <use x="926.611328" xlink:href="#DejaVuSans-61"/>
       <use x="987.890625" xlink:href="#DejaVuSans-6e"/>
       <use x="1051.269531" xlink:href="#DejaVuSans-64"/>
       <use x="1114.746094" xlink:href="#DejaVuSans-20"/>
       <use x="1146.533203" xlink:href="#DejaVuSans-62"/>
       <use x="1210.009766" xlink:href="#DejaVuSans-65"/>
       <use x="1271.533203" xlink:href="#DejaVuSans-76"/>
       <use x="1330.712891" xlink:href="#DejaVuSans-65"/>
       <use x="1392.236328" xlink:href="#DejaVuSans-72"/>
       <use x="1433.349609" xlink:href="#DejaVuSans-61"/>
       <use x="1494.628906" xlink:href="#DejaVuSans-67"/>
       <use x="1558.105469" xlink:href="#DejaVuSans-65"/>
       <use x="1619.628906" xlink:href="#DejaVuSans-73"/>
      </g>
     </g>
    </g>
    <g id="ytick_5">
     <g id="line2d_13">
      <g>
       <use style="stroke:#000000;stroke-width:0.8;" x="181.376563" xlink:href="#m7b4ab07cc6" y="557.220525"/>
      </g>
     </g>
     <g id="text_14">
      <!-- Plant-based foods -->
      <g transform="translate(84.89375 561.019744)scale(0.1 -0.1)">
       <use xlink:href="#DejaVuSans-50"/>
       <use x="60.302734" xlink:href="#DejaVuSans-6c"/>
       <use x="88.085938" xlink:href="#DejaVuSans-61"/>
       <use x="149.365234" xlink:href="#DejaVuSans-6e"/>
       <use x="212.744141" xlink:href="#DejaVuSans-74"/>
       <use x="251.953125" xlink:href="#DejaVuSans-2d"/>
       <use x="288.037109" xlink:href="#DejaVuSans-62"/>
       <use x="351.513672" xlink:href="#DejaVuSans-61"/>
       <use x="412.792969" xlink:href="#DejaVuSans-73"/>
       <use x="464.892578" xlink:href="#DejaVuSans-65"/>
       <use x="526.416016" xlink:href="#DejaVuSans-64"/>
       <use x="589.892578" xlink:href="#DejaVuSans-20"/>
       <use x="621.679688" xlink:href="#DejaVuSans-66"/>
       <use x="656.884766" xlink:href="#DejaVuSans-6f"/>
       <use x="718.066406" xlink:href="#DejaVuSans-6f"/>
       <use x="779.248047" xlink:href="#DejaVuSans-64"/>
       <use x="842.724609" xlink:href="#DejaVuSans-73"/>
      </g>
     </g>
    </g>
    <g id="ytick_6">
     <g id="line2d_14">
      <g>
       <use style="stroke:#000000;stroke-width:0.8;" x="181.376563" xlink:href="#m7b4ab07cc6" y="531.127725"/>
      </g>
     </g>
     <g id="text_15">
      <!-- Confectioneries -->
      <defs>
       <path d="M 64.40625 67.28125 
L 64.40625 56.890625 
Q 59.421875 61.53125 53.78125 63.8125 
Q 48.140625 66.109375 41.796875 66.109375 
Q 29.296875 66.109375 22.65625 58.46875 
Q 16.015625 50.828125 16.015625 36.375 
Q 16.015625 21.96875 22.65625 14.328125 
Q 29.296875 6.6875 41.796875 6.6875 
Q 48.140625 6.6875 53.78125 8.984375 
Q 59.421875 11.28125 64.40625 15.921875 
L 64.40625 5.609375 
Q 59.234375 2.09375 53.4375 0.328125 
Q 47.65625 -1.421875 41.21875 -1.421875 
Q 24.65625 -1.421875 15.125 8.703125 
Q 5.609375 18.84375 5.609375 36.375 
Q 5.609375 53.953125 15.125 64.078125 
Q 24.65625 74.21875 41.21875 74.21875 
Q 47.75 74.21875 53.53125 72.484375 
Q 59.328125 70.75 64.40625 67.28125 
z
" id="DejaVuSans-43"/>
      </defs>
      <g transform="translate(96.20625 534.926944)scale(0.1 -0.1)">
       <use xlink:href="#DejaVuSans-43"/>
       <use x="69.824219" xlink:href="#DejaVuSans-6f"/>
       <use x="131.005859" xlink:href="#DejaVuSans-6e"/>
       <use x="194.384766" xlink:href="#DejaVuSans-66"/>
       <use x="229.589844" xlink:href="#DejaVuSans-65"/>
       <use x="291.113281" xlink:href="#DejaVuSans-63"/>
       <use x="346.09375" xlink:href="#DejaVuSans-74"/>
       <use x="385.302734" xlink:href="#DejaVuSans-69"/>
       <use x="413.085938" xlink:href="#DejaVuSans-6f"/>
       <use x="474.267578" xlink:href="#DejaVuSans-6e"/>
       <use x="537.646484" xlink:href="#DejaVuSans-65"/>
       <use x="599.169922" xlink:href="#DejaVuSans-72"/>
       <use x="640.283203" xlink:href="#DejaVuSans-69"/>
       <use x="668.066406" xlink:href="#DejaVuSans-65"/>
       <use x="729.589844" xlink:href="#DejaVuSans-73"/>
      </g>
     </g>
    </g>
    <g id="ytick_7">
     <g id="line2d_15">
      <g>
       <use style="stroke:#000000;stroke-width:0.8;" x="181.376563" xlink:href="#m7b4ab07cc6" y="505.034925"/>
      </g>
     </g>
     <g id="text_16">
      <!-- Cereals and potatoes -->
      <defs>
       <path d="M 18.109375 8.203125 
L 18.109375 -20.796875 
L 9.078125 -20.796875 
L 9.078125 54.6875 
L 18.109375 54.6875 
L 18.109375 46.390625 
Q 20.953125 51.265625 25.265625 53.625 
Q 29.59375 56 35.59375 56 
Q 45.5625 56 51.78125 48.09375 
Q 58.015625 40.1875 58.015625 27.296875 
Q 58.015625 14.40625 51.78125 6.484375 
Q 45.5625 -1.421875 35.59375 -1.421875 
Q 29.59375 -1.421875 25.265625 0.953125 
Q 20.953125 3.328125 18.109375 8.203125 
z
M 48.6875 27.296875 
Q 48.6875 37.203125 44.609375 42.84375 
Q 40.53125 48.484375 33.40625 48.484375 
Q 26.265625 48.484375 22.1875 42.84375 
Q 18.109375 37.203125 18.109375 27.296875 
Q 18.109375 17.390625 22.1875 11.75 
Q 26.265625 6.109375 33.40625 6.109375 
Q 40.53125 6.109375 44.609375 11.75 
Q 48.6875 17.390625 48.6875 27.296875 
z
" id="DejaVuSans-70"/>
      </defs>
      <g transform="translate(67.776563 508.834144)scale(0.1 -0.1)">
       <use xlink:href="#DejaVuSans-43"/>
       <use x="69.824219" xlink:href="#DejaVuSans-65"/>
       <use x="131.347656" xlink:href="#DejaVuSans-72"/>
       <use x="172.429688" xlink:href="#DejaVuSans-65"/>
       <use x="233.953125" xlink:href="#DejaVuSans-61"/>
       <use x="295.232422" xlink:href="#DejaVuSans-6c"/>
       <use x="323.015625" xlink:href="#DejaVuSans-73"/>
       <use x="375.115234" xlink:href="#DejaVuSans-20"/>
       <use x="406.902344" xlink:href="#DejaVuSans-61"/>
       <use x="468.181641" xlink:href="#DejaVuSans-6e"/>
       <use x="531.560547" xlink:href="#DejaVuSans-64"/>
       <use x="595.037109" xlink:href="#DejaVuSans-20"/>
       <use x="626.824219" xlink:href="#DejaVuSans-70"/>
       <use x="690.300781" xlink:href="#DejaVuSans-6f"/>
       <use x="751.482422" xlink:href="#DejaVuSans-74"/>
       <use x="790.691406" xlink:href="#DejaVuSans-61"/>
       <use x="851.970703" xlink:href="#DejaVuSans-74"/>
       <use x="891.179688" xlink:href="#DejaVuSans-6f"/>
       <use x="952.361328" xlink:href="#DejaVuSans-65"/>
       <use x="1013.884766" xlink:href="#DejaVuSans-73"/>
      </g>
     </g>
    </g>
    <g id="ytick_8">
     <g id="line2d_16">
      <g>
       <use style="stroke:#000000;stroke-width:0.8;" x="181.376563" xlink:href="#m7b4ab07cc6" y="478.942125"/>
      </g>
     </g>
     <g id="text_17">
      <!-- Chocolate biscuits -->
      <defs>
       <path d="M 54.890625 33.015625 
L 54.890625 0 
L 45.90625 0 
L 45.90625 32.71875 
Q 45.90625 40.484375 42.875 44.328125 
Q 39.84375 48.1875 33.796875 48.1875 
Q 26.515625 48.1875 22.3125 43.546875 
Q 18.109375 38.921875 18.109375 30.90625 
L 18.109375 0 
L 9.078125 0 
L 9.078125 75.984375 
L 18.109375 75.984375 
L 18.109375 46.1875 
Q 21.34375 51.125 25.703125 53.5625 
Q 30.078125 56 35.796875 56 
Q 45.21875 56 50.046875 50.171875 
Q 54.890625 44.34375 54.890625 33.015625 
z
" id="DejaVuSans-68"/>
      </defs>
      <g transform="translate(83.082813 482.741344)scale(0.1 -0.1)">
       <use xlink:href="#DejaVuSans-43"/>
       <use x="69.824219" xlink:href="#DejaVuSans-68"/>
       <use x="133.203125" xlink:href="#DejaVuSans-6f"/>
       <use x="194.384766" xlink:href="#DejaVuSans-63"/>
       <use x="249.365234" xlink:href="#DejaVuSans-6f"/>
       <use x="310.546875" xlink:href="#DejaVuSans-6c"/>
       <use x="338.330078" xlink:href="#DejaVuSans-61"/>
       <use x="399.609375" xlink:href="#DejaVuSans-74"/>
       <use x="438.818359" xlink:href="#DejaVuSans-65"/>
       <use x="500.341797" xlink:href="#DejaVuSans-20"/>
       <use x="532.128906" xlink:href="#DejaVuSans-62"/>
       <use x="595.605469" xlink:href="#DejaVuSans-69"/>
       <use x="623.388672" xlink:href="#DejaVuSans-73"/>
       <use x="675.488281" xlink:href="#DejaVuSans-63"/>
       <use x="730.46875" xlink:href="#DejaVuSans-75"/>
       <use x="793.847656" xlink:href="#DejaVuSans-69"/>
       <use x="821.630859" xlink:href="#DejaVuSans-74"/>
       <use x="860.839844" xlink:href="#DejaVuSans-73"/>
      </g>
     </g>
    </g>
    <g id="ytick_9">
     <g id="line2d_17">
      <g>
       <use style="stroke:#000000;stroke-width:0.8;" x="181.376563" xlink:href="#m7b4ab07cc6" y="452.849325"/>
      </g>
     </g>
     <g id="text_18">
      <!-- Meals -->
      <defs>
       <path d="M 9.8125 72.90625 
L 24.515625 72.90625 
L 43.109375 23.296875 
L 61.8125 72.90625 
L 76.515625 72.90625 
L 76.515625 0 
L 66.890625 0 
L 66.890625 64.015625 
L 48.09375 14.015625 
L 38.1875 14.015625 
L 19.390625 64.015625 
L 19.390625 0 
L 9.8125 0 
z
" id="DejaVuSans-4d"/>
      </defs>
      <g transform="translate(145.479688 456.648544)scale(0.1 -0.1)">
       <use xlink:href="#DejaVuSans-4d"/>
       <use x="86.279297" xlink:href="#DejaVuSans-65"/>
       <use x="147.802734" xlink:href="#DejaVuSans-61"/>
       <use x="209.082031" xlink:href="#DejaVuSans-6c"/>
       <use x="236.865234" xlink:href="#DejaVuSans-73"/>
      </g>
     </g>
    </g>
    <g id="ytick_10">
     <g id="line2d_18">
      <g>
       <use style="stroke:#000000;stroke-width:0.8;" x="181.376563" xlink:href="#m7b4ab07cc6" y="426.756525"/>
      </g>
     </g>
     <g id="text_19">
      <!-- Chocolate candies -->
      <g transform="translate(82.709375 430.555744)scale(0.1 -0.1)">
       <use xlink:href="#DejaVuSans-43"/>
       <use x="69.824219" xlink:href="#DejaVuSans-68"/>
       <use x="133.203125" xlink:href="#DejaVuSans-6f"/>
       <use x="194.384766" xlink:href="#DejaVuSans-63"/>
       <use x="249.365234" xlink:href="#DejaVuSans-6f"/>
       <use x="310.546875" xlink:href="#DejaVuSans-6c"/>
       <use x="338.330078" xlink:href="#DejaVuSans-61"/>
       <use x="399.609375" xlink:href="#DejaVuSans-74"/>
       <use x="438.818359" xlink:href="#DejaVuSans-65"/>
       <use x="500.341797" xlink:href="#DejaVuSans-20"/>
       <use x="532.128906" xlink:href="#DejaVuSans-63"/>
       <use x="587.109375" xlink:href="#DejaVuSans-61"/>
       <use x="648.388672" xlink:href="#DejaVuSans-6e"/>
       <use x="711.767578" xlink:href="#DejaVuSans-64"/>
       <use x="775.244141" xlink:href="#DejaVuSans-69"/>
       <use x="803.027344" xlink:href="#DejaVuSans-65"/>
       <use x="864.550781" xlink:href="#DejaVuSans-73"/>
      </g>
     </g>
    </g>
    <g id="ytick_11">
     <g id="line2d_19">
      <g>
       <use style="stroke:#000000;stroke-width:0.8;" x="181.376563" xlink:href="#m7b4ab07cc6" y="400.663725"/>
      </g>
     </g>
     <g id="text_20">
      <!-- Breakfasts -->
      <g transform="translate(121.348438 404.462944)scale(0.1 -0.1)">
       <use xlink:href="#DejaVuSans-42"/>
       <use x="68.603516" xlink:href="#DejaVuSans-72"/>
       <use x="109.685547" xlink:href="#DejaVuSans-65"/>
       <use x="171.208984" xlink:href="#DejaVuSans-61"/>
       <use x="232.488281" xlink:href="#DejaVuSans-6b"/>
       <use x="290.398438" xlink:href="#DejaVuSans-66"/>
       <use x="325.603516" xlink:href="#DejaVuSans-61"/>
       <use x="386.882812" xlink:href="#DejaVuSans-73"/>
       <use x="438.982422" xlink:href="#DejaVuSans-74"/>
       <use x="478.191406" xlink:href="#DejaVuSans-73"/>
      </g>
     </g>
    </g>
    <g id="ytick_12">
     <g id="line2d_20">
      <g>
       <use style="stroke:#000000;stroke-width:0.8;" x="181.376563" xlink:href="#m7b4ab07cc6" y="374.570925"/>
      </g>
     </g>
     <g id="text_21">
      <!-- Cakes -->
      <g transform="translate(144.117188 378.370144)scale(0.1 -0.1)">
       <use xlink:href="#DejaVuSans-43"/>
       <use x="69.824219" xlink:href="#DejaVuSans-61"/>
       <use x="131.103516" xlink:href="#DejaVuSans-6b"/>
       <use x="188.966797" xlink:href="#DejaVuSans-65"/>
       <use x="250.490234" xlink:href="#DejaVuSans-73"/>
      </g>
     </g>
    </g>
    <g id="ytick_13">
     <g id="line2d_21">
      <g>
       <use style="stroke:#000000;stroke-width:0.8;" x="181.376563" xlink:href="#m7b4ab07cc6" y="348.478125"/>
      </g>
     </g>
     <g id="text_22">
      <!-- Cereals and their products -->
      <g transform="translate(41.326563 352.277344)scale(0.1 -0.1)">
       <use xlink:href="#DejaVuSans-43"/>
       <use x="69.824219" xlink:href="#DejaVuSans-65"/>
       <use x="131.347656" xlink:href="#DejaVuSans-72"/>
       <use x="172.429688" xlink:href="#DejaVuSans-65"/>
       <use x="233.953125" xlink:href="#DejaVuSans-61"/>
       <use x="295.232422" xlink:href="#DejaVuSans-6c"/>
       <use x="323.015625" xlink:href="#DejaVuSans-73"/>
       <use x="375.115234" xlink:href="#DejaVuSans-20"/>
       <use x="406.902344" xlink:href="#DejaVuSans-61"/>
       <use x="468.181641" xlink:href="#DejaVuSans-6e"/>
       <use x="531.560547" xlink:href="#DejaVuSans-64"/>
       <use x="595.037109" xlink:href="#DejaVuSans-20"/>
       <use x="626.824219" xlink:href="#DejaVuSans-74"/>
       <use x="666.033203" xlink:href="#DejaVuSans-68"/>
       <use x="729.412109" xlink:href="#DejaVuSans-65"/>
       <use x="790.935547" xlink:href="#DejaVuSans-69"/>
       <use x="818.71875" xlink:href="#DejaVuSans-72"/>
       <use x="859.832031" xlink:href="#DejaVuSans-20"/>
       <use x="891.619141" xlink:href="#DejaVuSans-70"/>
       <use x="955.095703" xlink:href="#DejaVuSans-72"/>
       <use x="996.177734" xlink:href="#DejaVuSans-6f"/>
       <use x="1057.359375" xlink:href="#DejaVuSans-64"/>
       <use x="1120.835938" xlink:href="#DejaVuSans-75"/>
       <use x="1184.214844" xlink:href="#DejaVuSans-63"/>
       <use x="1239.195312" xlink:href="#DejaVuSans-74"/>
       <use x="1278.404297" xlink:href="#DejaVuSans-73"/>
      </g>
     </g>
    </g>
    <g id="ytick_14">
     <g id="line2d_22">
      <g>
       <use style="stroke:#000000;stroke-width:0.8;" x="181.376563" xlink:href="#m7b4ab07cc6" y="322.385325"/>
      </g>
     </g>
     <g id="text_23">
      <!-- Pastries -->
      <g transform="translate(134.84375 326.184544)scale(0.1 -0.1)">
       <use xlink:href="#DejaVuSans-50"/>
       <use x="60.240234" xlink:href="#DejaVuSans-61"/>
       <use x="121.519531" xlink:href="#DejaVuSans-73"/>
       <use x="173.619141" xlink:href="#DejaVuSans-74"/>
       <use x="212.828125" xlink:href="#DejaVuSans-72"/>
       <use x="253.941406" xlink:href="#DejaVuSans-69"/>
       <use x="281.724609" xlink:href="#DejaVuSans-65"/>
       <use x="343.248047" xlink:href="#DejaVuSans-73"/>
      </g>
     </g>
    </g>
    <g id="ytick_15">
     <g id="line2d_23">
      <g>
       <use style="stroke:#000000;stroke-width:0.8;" x="181.376563" xlink:href="#m7b4ab07cc6" y="296.292525"/>
      </g>
     </g>
     <g id="text_24">
      <!-- Spreads -->
      <g transform="translate(133.732813 300.091744)scale(0.1 -0.1)">
       <use xlink:href="#DejaVuSans-53"/>
       <use x="63.476562" xlink:href="#DejaVuSans-70"/>
       <use x="126.953125" xlink:href="#DejaVuSans-72"/>
       <use x="168.035156" xlink:href="#DejaVuSans-65"/>
       <use x="229.558594" xlink:href="#DejaVuSans-61"/>
       <use x="290.837891" xlink:href="#DejaVuSans-64"/>
       <use x="354.314453" xlink:href="#DejaVuSans-73"/>
      </g>
     </g>
    </g>
    <g id="ytick_16">
     <g id="line2d_24">
      <g>
       <use style="stroke:#000000;stroke-width:0.8;" x="181.376563" xlink:href="#m7b4ab07cc6" y="270.199725"/>
      </g>
     </g>
     <g id="text_25">
      <!-- Desserts -->
      <defs>
       <path d="M 19.671875 64.796875 
L 19.671875 8.109375 
L 31.59375 8.109375 
Q 46.6875 8.109375 53.6875 14.9375 
Q 60.6875 21.78125 60.6875 36.53125 
Q 60.6875 51.171875 53.6875 57.984375 
Q 46.6875 64.796875 31.59375 64.796875 
z
M 9.8125 72.90625 
L 30.078125 72.90625 
Q 51.265625 72.90625 61.171875 64.09375 
Q 71.09375 55.28125 71.09375 36.53125 
Q 71.09375 17.671875 61.125 8.828125 
Q 51.171875 0 30.078125 0 
L 9.8125 0 
z
" id="DejaVuSans-44"/>
      </defs>
      <g transform="translate(130.710938 273.998944)scale(0.1 -0.1)">
       <use xlink:href="#DejaVuSans-44"/>
       <use x="77.001953" xlink:href="#DejaVuSans-65"/>
       <use x="138.525391" xlink:href="#DejaVuSans-73"/>
       <use x="190.625" xlink:href="#DejaVuSans-73"/>
       <use x="242.724609" xlink:href="#DejaVuSans-65"/>
       <use x="304.248047" xlink:href="#DejaVuSans-72"/>
       <use x="345.361328" xlink:href="#DejaVuSans-74"/>
       <use x="384.570312" xlink:href="#DejaVuSans-73"/>
      </g>
     </g>
    </g>
    <g id="ytick_17">
     <g id="line2d_25">
      <g>
       <use style="stroke:#000000;stroke-width:0.8;" x="181.376563" xlink:href="#m7b4ab07cc6" y="244.106925"/>
      </g>
     </g>
     <g id="text_26">
      <!-- Frozen foods -->
      <defs>
       <path d="M 9.8125 72.90625 
L 51.703125 72.90625 
L 51.703125 64.59375 
L 19.671875 64.59375 
L 19.671875 43.109375 
L 48.578125 43.109375 
L 48.578125 34.8125 
L 19.671875 34.8125 
L 19.671875 0 
L 9.8125 0 
z
" id="DejaVuSans-46"/>
       <path d="M 5.515625 54.6875 
L 48.1875 54.6875 
L 48.1875 46.484375 
L 14.40625 7.171875 
L 48.1875 7.171875 
L 48.1875 0 
L 4.296875 0 
L 4.296875 8.203125 
L 38.09375 47.515625 
L 5.515625 47.515625 
z
" id="DejaVuSans-7a"/>
      </defs>
      <g transform="translate(110.176563 247.906144)scale(0.1 -0.1)">
       <use xlink:href="#DejaVuSans-46"/>
       <use x="57.410156" xlink:href="#DejaVuSans-72"/>
       <use x="98.492188" xlink:href="#DejaVuSans-6f"/>
       <use x="159.673828" xlink:href="#DejaVuSans-7a"/>
       <use x="212.164062" xlink:href="#DejaVuSans-65"/>
       <use x="273.6875" xlink:href="#DejaVuSans-6e"/>
       <use x="337.066406" xlink:href="#DejaVuSans-20"/>
       <use x="368.853516" xlink:href="#DejaVuSans-66"/>
       <use x="404.058594" xlink:href="#DejaVuSans-6f"/>
       <use x="465.240234" xlink:href="#DejaVuSans-6f"/>
       <use x="526.421875" xlink:href="#DejaVuSans-64"/>
       <use x="589.898438" xlink:href="#DejaVuSans-73"/>
      </g>
     </g>
    </g>
    <g id="ytick_18">
     <g id="line2d_26">
      <g>
       <use style="stroke:#000000;stroke-width:0.8;" x="181.376563" xlink:href="#m7b4ab07cc6" y="218.014125"/>
      </g>
     </g>
     <g id="text_27">
      <!-- Dried products -->
      <g transform="translate(100.21875 221.813344)scale(0.1 -0.1)">
       <use xlink:href="#DejaVuSans-44"/>
       <use x="77.001953" xlink:href="#DejaVuSans-72"/>
       <use x="118.115234" xlink:href="#DejaVuSans-69"/>
       <use x="145.898438" xlink:href="#DejaVuSans-65"/>
       <use x="207.421875" xlink:href="#DejaVuSans-64"/>
       <use x="270.898438" xlink:href="#DejaVuSans-20"/>
       <use x="302.685547" xlink:href="#DejaVuSans-70"/>
       <use x="366.162109" xlink:href="#DejaVuSans-72"/>
       <use x="407.244141" xlink:href="#DejaVuSans-6f"/>
       <use x="468.425781" xlink:href="#DejaVuSans-64"/>
       <use x="531.902344" xlink:href="#DejaVuSans-75"/>
       <use x="595.28125" xlink:href="#DejaVuSans-63"/>
       <use x="650.261719" xlink:href="#DejaVuSans-74"/>
       <use x="689.470703" xlink:href="#DejaVuSans-73"/>
      </g>
     </g>
    </g>
    <g id="ytick_19">
     <g id="line2d_27">
      <g>
       <use style="stroke:#000000;stroke-width:0.8;" x="181.376563" xlink:href="#m7b4ab07cc6" y="191.921325"/>
      </g>
     </g>
     <g id="text_28">
      <!-- Dried products to be rehydrated -->
      <g transform="translate(12.617188 195.720544)scale(0.1 -0.1)">
       <use xlink:href="#DejaVuSans-44"/>
       <use x="77.001953" xlink:href="#DejaVuSans-72"/>
       <use x="118.115234" xlink:href="#DejaVuSans-69"/>
       <use x="145.898438" xlink:href="#DejaVuSans-65"/>
       <use x="207.421875" xlink:href="#DejaVuSans-64"/>
       <use x="270.898438" xlink:href="#DejaVuSans-20"/>
       <use x="302.685547" xlink:href="#DejaVuSans-70"/>
       <use x="366.162109" xlink:href="#DejaVuSans-72"/>
       <use x="407.244141" xlink:href="#DejaVuSans-6f"/>
       <use x="468.425781" xlink:href="#DejaVuSans-64"/>
       <use x="531.902344" xlink:href="#DejaVuSans-75"/>
       <use x="595.28125" xlink:href="#DejaVuSans-63"/>
       <use x="650.261719" xlink:href="#DejaVuSans-74"/>
       <use x="689.470703" xlink:href="#DejaVuSans-73"/>
       <use x="741.570312" xlink:href="#DejaVuSans-20"/>
       <use x="773.357422" xlink:href="#DejaVuSans-74"/>
       <use x="812.566406" xlink:href="#DejaVuSans-6f"/>
       <use x="873.748047" xlink:href="#DejaVuSans-20"/>
       <use x="905.535156" xlink:href="#DejaVuSans-62"/>
       <use x="969.011719" xlink:href="#DejaVuSans-65"/>
       <use x="1030.535156" xlink:href="#DejaVuSans-20"/>
       <use x="1062.322266" xlink:href="#DejaVuSans-72"/>
       <use x="1103.404297" xlink:href="#DejaVuSans-65"/>
       <use x="1164.927734" xlink:href="#DejaVuSans-68"/>
       <use x="1228.306641" xlink:href="#DejaVuSans-79"/>
       <use x="1287.486328" xlink:href="#DejaVuSans-64"/>
       <use x="1350.962891" xlink:href="#DejaVuSans-72"/>
       <use x="1392.076172" xlink:href="#DejaVuSans-61"/>
       <use x="1453.355469" xlink:href="#DejaVuSans-74"/>
       <use x="1492.564453" xlink:href="#DejaVuSans-65"/>
       <use x="1554.087891" xlink:href="#DejaVuSans-64"/>
      </g>
     </g>
    </g>
    <g id="ytick_20">
     <g id="line2d_28">
      <g>
       <use style="stroke:#000000;stroke-width:0.8;" x="181.376563" xlink:href="#m7b4ab07cc6" y="165.828525"/>
      </g>
     </g>
     <g id="text_29">
      <!-- Bars -->
      <g transform="translate(152.067188 169.627744)scale(0.1 -0.1)">
       <use xlink:href="#DejaVuSans-42"/>
       <use x="68.603516" xlink:href="#DejaVuSans-61"/>
       <use x="129.882812" xlink:href="#DejaVuSans-72"/>
       <use x="170.996094" xlink:href="#DejaVuSans-73"/>
      </g>
     </g>
    </g>
    <g id="ytick_21">
     <g id="line2d_29">
      <g>
       <use style="stroke:#000000;stroke-width:0.8;" x="181.376563" xlink:href="#m7b4ab07cc6" y="139.735725"/>
      </g>
     </g>
     <g id="text_30">
      <!-- Salty snacks -->
      <g transform="translate(111.93125 143.534944)scale(0.1 -0.1)">
       <use xlink:href="#DejaVuSans-53"/>
       <use x="63.476562" xlink:href="#DejaVuSans-61"/>
       <use x="124.755859" xlink:href="#DejaVuSans-6c"/>
       <use x="152.539062" xlink:href="#DejaVuSans-74"/>
       <use x="191.748047" xlink:href="#DejaVuSans-79"/>
       <use x="250.927734" xlink:href="#DejaVuSans-20"/>
       <use x="282.714844" xlink:href="#DejaVuSans-73"/>
       <use x="334.814453" xlink:href="#DejaVuSans-6e"/>
       <use x="398.193359" xlink:href="#DejaVuSans-61"/>
       <use x="459.472656" xlink:href="#DejaVuSans-63"/>
       <use x="514.453125" xlink:href="#DejaVuSans-6b"/>
       <use x="572.363281" xlink:href="#DejaVuSans-73"/>
      </g>
     </g>
    </g>
    <g id="ytick_22">
     <g id="line2d_30">
      <g>
       <use style="stroke:#000000;stroke-width:0.8;" x="181.376563" xlink:href="#m7b4ab07cc6" y="113.642925"/>
      </g>
     </g>
     <g id="text_31">
      <!-- Bonbons -->
      <g transform="translate(131.045313 117.442144)scale(0.1 -0.1)">
       <use xlink:href="#DejaVuSans-42"/>
       <use x="68.603516" xlink:href="#DejaVuSans-6f"/>
       <use x="129.785156" xlink:href="#DejaVuSans-6e"/>
       <use x="193.164062" xlink:href="#DejaVuSans-62"/>
       <use x="256.640625" xlink:href="#DejaVuSans-6f"/>
       <use x="317.822266" xlink:href="#DejaVuSans-6e"/>
       <use x="381.201172" xlink:href="#DejaVuSans-73"/>
      </g>
     </g>
    </g>
    <g id="ytick_23">
     <g id="line2d_31">
      <g>
       <use style="stroke:#000000;stroke-width:0.8;" x="181.376563" xlink:href="#m7b4ab07cc6" y="87.550125"/>
      </g>
     </g>
     <g id="text_32">
      <!-- Chocolates -->
      <g transform="translate(119.13125 91.349344)scale(0.1 -0.1)">
       <use xlink:href="#DejaVuSans-43"/>
       <use x="69.824219" xlink:href="#DejaVuSans-68"/>
       <use x="133.203125" xlink:href="#DejaVuSans-6f"/>
       <use x="194.384766" xlink:href="#DejaVuSans-63"/>
       <use x="249.365234" xlink:href="#DejaVuSans-6f"/>
       <use x="310.546875" xlink:href="#DejaVuSans-6c"/>
       <use x="338.330078" xlink:href="#DejaVuSans-61"/>
       <use x="399.609375" xlink:href="#DejaVuSans-74"/>
       <use x="438.818359" xlink:href="#DejaVuSans-65"/>
       <use x="500.341797" xlink:href="#DejaVuSans-73"/>
      </g>
     </g>
    </g>
    <g id="ytick_24">
     <g id="line2d_32">
      <g>
       <use style="stroke:#000000;stroke-width:0.8;" x="181.376563" xlink:href="#m7b4ab07cc6" y="61.457325"/>
      </g>
     </g>
     <g id="text_33">
      <!-- Candies -->
      <g transform="translate(134.439063 65.256544)scale(0.1 -0.1)">
       <use xlink:href="#DejaVuSans-43"/>
       <use x="69.824219" xlink:href="#DejaVuSans-61"/>
       <use x="131.103516" xlink:href="#DejaVuSans-6e"/>
       <use x="194.482422" xlink:href="#DejaVuSans-64"/>
       <use x="257.958984" xlink:href="#DejaVuSans-69"/>
       <use x="285.742188" xlink:href="#DejaVuSans-65"/>
       <use x="347.265625" xlink:href="#DejaVuSans-73"/>
      </g>
     </g>
    </g>
    <g id="ytick_25">
     <g id="line2d_33">
      <g>
       <use style="stroke:#000000;stroke-width:0.8;" x="181.376563" xlink:href="#m7b4ab07cc6" y="35.364525"/>
      </g>
     </g>
     <g id="text_34">
      <!-- Appetizers -->
      <g transform="translate(121.265625 39.163744)scale(0.1 -0.1)">
       <use xlink:href="#DejaVuSans-41"/>
       <use x="68.408203" xlink:href="#DejaVuSans-70"/>
       <use x="131.884766" xlink:href="#DejaVuSans-70"/>
       <use x="195.361328" xlink:href="#DejaVuSans-65"/>
       <use x="256.884766" xlink:href="#DejaVuSans-74"/>
       <use x="296.09375" xlink:href="#DejaVuSans-69"/>
       <use x="323.876953" xlink:href="#DejaVuSans-7a"/>
       <use x="376.367188" xlink:href="#DejaVuSans-65"/>
       <use x="437.890625" xlink:href="#DejaVuSans-72"/>
       <use x="479.003906" xlink:href="#DejaVuSans-73"/>
      </g>
     </g>
    </g>
   </g>
   <g id="patch_28">
    <path d="M 181.376563 674.638125 
L 181.376563 22.318125 
" style="fill:none;stroke:#000000;stroke-linecap:square;stroke-linejoin:miter;stroke-width:0.8;"/>
   </g>
   <g id="patch_29">
    <path d="M 962.576563 674.638125 
L 962.576563 22.318125 
" style="fill:none;stroke:#000000;stroke-linecap:square;stroke-linejoin:miter;stroke-width:0.8;"/>
   </g>
   <g id="patch_30">
    <path d="M 181.376563 674.638125 
L 962.576563 674.638125 
" style="fill:none;stroke:#000000;stroke-linecap:square;stroke-linejoin:miter;stroke-width:0.8;"/>
   </g>
   <g id="patch_31">
    <path d="M 181.376563 22.318125 
L 962.576563 22.318125 
" style="fill:none;stroke:#000000;stroke-linecap:square;stroke-linejoin:miter;stroke-width:0.8;"/>
   </g>
   <g id="text_35">
    <!-- Top 25 categories with most palm oil -->
    <defs>
     <path d="M -0.296875 72.90625 
L 61.375 72.90625 
L 61.375 64.59375 
L 35.5 64.59375 
L 35.5 0 
L 25.59375 0 
L 25.59375 64.59375 
L -0.296875 64.59375 
z
" id="DejaVuSans-54"/>
     <path d="M 4.203125 54.6875 
L 13.1875 54.6875 
L 24.421875 12.015625 
L 35.59375 54.6875 
L 46.1875 54.6875 
L 57.421875 12.015625 
L 68.609375 54.6875 
L 77.59375 54.6875 
L 63.28125 0 
L 52.6875 0 
L 40.921875 44.828125 
L 29.109375 0 
L 18.5 0 
z
" id="DejaVuSans-77"/>
    </defs>
    <g transform="translate(460.595937 16.318125)scale(0.12 -0.12)">
     <use xlink:href="#DejaVuSans-54"/>
     <use x="60.818359" xlink:href="#DejaVuSans-6f"/>
     <use x="122" xlink:href="#DejaVuSans-70"/>
     <use x="185.476562" xlink:href="#DejaVuSans-20"/>
     <use x="217.263672" xlink:href="#DejaVuSans-32"/>
     <use x="280.886719" xlink:href="#DejaVuSans-35"/>
     <use x="344.509766" xlink:href="#DejaVuSans-20"/>
     <use x="376.296875" xlink:href="#DejaVuSans-63"/>
     <use x="431.277344" xlink:href="#DejaVuSans-61"/>
     <use x="492.556641" xlink:href="#DejaVuSans-74"/>
     <use x="531.765625" xlink:href="#DejaVuSans-65"/>
     <use x="593.289062" xlink:href="#DejaVuSans-67"/>
     <use x="656.765625" xlink:href="#DejaVuSans-6f"/>
     <use x="717.947266" xlink:href="#DejaVuSans-72"/>
     <use x="759.060547" xlink:href="#DejaVuSans-69"/>
     <use x="786.84375" xlink:href="#DejaVuSans-65"/>
     <use x="848.367188" xlink:href="#DejaVuSans-73"/>
     <use x="900.466797" xlink:href="#DejaVuSans-20"/>
     <use x="932.253906" xlink:href="#DejaVuSans-77"/>
     <use x="1014.041016" xlink:href="#DejaVuSans-69"/>
     <use x="1041.824219" xlink:href="#DejaVuSans-74"/>
     <use x="1081.033203" xlink:href="#DejaVuSans-68"/>
     <use x="1144.412109" xlink:href="#DejaVuSans-20"/>
     <use x="1176.199219" xlink:href="#DejaVuSans-6d"/>
     <use x="1273.611328" xlink:href="#DejaVuSans-6f"/>
     <use x="1334.792969" xlink:href="#DejaVuSans-73"/>
     <use x="1386.892578" xlink:href="#DejaVuSans-74"/>
     <use x="1426.101562" xlink:href="#DejaVuSans-20"/>
     <use x="1457.888672" xlink:href="#DejaVuSans-70"/>
     <use x="1521.365234" xlink:href="#DejaVuSans-61"/>
     <use x="1582.644531" xlink:href="#DejaVuSans-6c"/>
     <use x="1610.427734" xlink:href="#DejaVuSans-6d"/>
     <use x="1707.839844" xlink:href="#DejaVuSans-20"/>
     <use x="1739.626953" xlink:href="#DejaVuSans-6f"/>
     <use x="1800.808594" xlink:href="#DejaVuSans-69"/>
     <use x="1828.591797" xlink:href="#DejaVuSans-6c"/>
    </g>
   </g>
  </g>
 </g>
 <defs>
  <clipPath id="p2dec8fb84f">
   <rect height="652.32" width="781.2" x="181.376563" y="22.318125"/>
  </clipPath>
 </defs>
</svg>
